<?xml version="1.0" encoding="utf-8" standalone="no"?>
<!DOCTYPE svg PUBLIC "-//W3C//DTD SVG 1.1//EN"
  "http://www.w3.org/Graphics/SVG/1.1/DTD/svg11.dtd">
<!-- Created with matplotlib (https://matplotlib.org/) -->
<svg height="345.6pt" version="1.1" viewBox="0 0 460.8 345.6" width="460.8pt" xmlns="http://www.w3.org/2000/svg" xmlns:xlink="http://www.w3.org/1999/xlink">
 <defs>
  <style type="text/css">
*{stroke-linecap:butt;stroke-linejoin:round;}
  </style>
 </defs>
 <g id="figure_1">
  <g id="patch_1">
   <path d="M 0 345.6 
L 460.8 345.6 
L 460.8 0 
L 0 0 
z
" style="fill:#ffffff;"/>
  </g>
  <g id="axes_1">
   <g id="patch_2">
    <path clip-path="url(#p6f8d8c9430)" d="M 238.808759 207.196029 
L 251.169635 207.196029 
L 251.169635 194.835153 
L 238.808759 194.835153 
z
" style="fill:#808080;stroke:#808080;stroke-linejoin:miter;stroke-width:0.5;"/>
   </g>
   <g id="patch_3">
    <path clip-path="url(#p6f8d8c9430)" d="M 256.467153 207.196029 
L 268.828029 207.196029 
L 268.828029 194.835153 
L 256.467153 194.835153 
z
" style="fill:#808080;stroke:#808080;stroke-linejoin:miter;stroke-width:0.5;"/>
   </g>
   <g id="patch_4">
    <path clip-path="url(#p6f8d8c9430)" d="M 221.150365 207.196029 
L 233.511241 207.196029 
L 233.511241 194.835153 
L 221.150365 194.835153 
z
" style="fill:#808080;stroke:#808080;stroke-linejoin:miter;stroke-width:0.5;"/>
   </g>
   <g id="patch_5">
    <path clip-path="url(#p6f8d8c9430)" d="M 238.808759 189.537635 
L 251.169635 189.537635 
L 251.169635 177.176759 
L 238.808759 177.176759 
z
" style="fill:#808080;stroke:#808080;stroke-linejoin:miter;stroke-width:0.5;"/>
   </g>
   <g id="patch_6">
    <path clip-path="url(#p6f8d8c9430)" d="M 238.808759 224.854423 
L 251.169635 224.854423 
L 251.169635 212.493547 
L 238.808759 212.493547 
z
" style="fill:#808080;stroke:#808080;stroke-linejoin:miter;stroke-width:0.5;"/>
   </g>
   <g id="patch_7">
    <path clip-path="url(#p6f8d8c9430)" d="M 256.467153 224.854423 
L 268.828029 224.854423 
L 268.828029 212.493547 
L 256.467153 212.493547 
z
" style="fill:#808080;stroke:#808080;stroke-linejoin:miter;stroke-width:0.5;"/>
   </g>
   <g id="patch_8">
    <path clip-path="url(#p6f8d8c9430)" d="M 221.150365 224.854423 
L 233.511241 224.854423 
L 233.511241 212.493547 
L 221.150365 212.493547 
z
" style="fill:#808080;stroke:#808080;stroke-linejoin:miter;stroke-width:0.5;"/>
   </g>
   <g id="patch_9">
    <path clip-path="url(#p6f8d8c9430)" d="M 238.808759 242.512818 
L 251.169635 242.512818 
L 251.169635 230.151942 
L 238.808759 230.151942 
z
" style="fill:#808080;stroke:#808080;stroke-linejoin:miter;stroke-width:0.5;"/>
   </g>
   <g id="patch_10">
    <path clip-path="url(#p6f8d8c9430)" d="M 256.467153 189.537635 
L 268.828029 189.537635 
L 268.828029 177.176759 
L 256.467153 177.176759 
z
" style="fill:#808080;stroke:#808080;stroke-linejoin:miter;stroke-width:0.5;"/>
   </g>
   <g id="patch_11">
    <path clip-path="url(#p6f8d8c9430)" d="M 221.150365 189.537635 
L 233.511241 189.537635 
L 233.511241 177.176759 
L 221.150365 177.176759 
z
" style="fill:#808080;stroke:#808080;stroke-linejoin:miter;stroke-width:0.5;"/>
   </g>
   <g id="patch_12">
    <path clip-path="url(#p6f8d8c9430)" d="M 238.808759 171.879241 
L 251.169635 171.879241 
L 251.169635 159.518365 
L 238.808759 159.518365 
z
" style="fill:#808080;stroke:#808080;stroke-linejoin:miter;stroke-width:0.5;"/>
   </g>
   <g id="patch_13">
    <path clip-path="url(#p6f8d8c9430)" d="M 256.467153 171.879241 
L 268.828029 171.879241 
L 268.828029 159.518365 
L 256.467153 159.518365 
z
" style="fill:#808080;stroke:#808080;stroke-linejoin:miter;stroke-width:0.5;"/>
   </g>
   <g id="patch_14">
    <path clip-path="url(#p6f8d8c9430)" d="M 221.150365 171.879241 
L 233.511241 171.879241 
L 233.511241 159.518365 
L 221.150365 159.518365 
z
" style="fill:#808080;stroke:#808080;stroke-linejoin:miter;stroke-width:0.5;"/>
   </g>
   <g id="patch_15">
    <path clip-path="url(#p6f8d8c9430)" d="M 238.808759 154.220847 
L 251.169635 154.220847 
L 251.169635 141.859971 
L 238.808759 141.859971 
z
" style="fill:#808080;stroke:#808080;stroke-linejoin:miter;stroke-width:0.5;"/>
   </g>
   <g id="patch_16">
    <path clip-path="url(#p6f8d8c9430)" d="M 256.467153 242.512818 
L 268.828029 242.512818 
L 268.828029 230.151942 
L 256.467153 230.151942 
z
" style="fill:#808080;stroke:#808080;stroke-linejoin:miter;stroke-width:0.5;"/>
   </g>
   <g id="patch_17">
    <path clip-path="url(#p6f8d8c9430)" d="M 221.150365 242.512818 
L 233.511241 242.512818 
L 233.511241 230.151942 
L 221.150365 230.151942 
z
" style="fill:#808080;stroke:#808080;stroke-linejoin:miter;stroke-width:0.5;"/>
   </g>
   <g id="patch_18">
    <path clip-path="url(#p6f8d8c9430)" d="M 238.808759 260.171212 
L 251.169635 260.171212 
L 251.169635 247.810336 
L 238.808759 247.810336 
z
" style="fill:#808080;stroke:#808080;stroke-linejoin:miter;stroke-width:0.5;"/>
   </g>
   <g id="patch_19">
    <path clip-path="url(#p6f8d8c9430)" d="M 203.491971 224.854423 
L 215.852847 224.854423 
L 215.852847 212.493547 
L 203.491971 212.493547 
z
" style="fill:#808080;stroke:#808080;stroke-linejoin:miter;stroke-width:0.5;"/>
   </g>
   <g id="patch_20">
    <path clip-path="url(#p6f8d8c9430)" d="M 274.125547 207.196029 
L 286.486423 207.196029 
L 286.486423 194.835153 
L 274.125547 194.835153 
z
" style="fill:#808080;stroke:#808080;stroke-linejoin:miter;stroke-width:0.5;"/>
   </g>
   <g id="patch_21">
    <path clip-path="url(#p6f8d8c9430)" d="M 185.833577 224.854423 
L 198.194453 224.854423 
L 198.194453 212.493547 
L 185.833577 212.493547 
z
" style="fill:#808080;stroke:#808080;stroke-linejoin:miter;stroke-width:0.5;"/>
   </g>
   <g id="patch_22">
    <path clip-path="url(#p6f8d8c9430)" d="M 203.491971 207.196029 
L 215.852847 207.196029 
L 215.852847 194.835153 
L 203.491971 194.835153 
z
" style="fill:#808080;stroke:#808080;stroke-linejoin:miter;stroke-width:0.5;"/>
   </g>
   <g id="patch_23">
    <path clip-path="url(#p6f8d8c9430)" d="M 203.491971 242.512818 
L 215.852847 242.512818 
L 215.852847 230.151942 
L 203.491971 230.151942 
z
" style="fill:#808080;stroke:#808080;stroke-linejoin:miter;stroke-width:0.5;"/>
   </g>
   <g id="patch_24">
    <path clip-path="url(#p6f8d8c9430)" d="M 291.783942 207.196029 
L 304.144818 207.196029 
L 304.144818 194.835153 
L 291.783942 194.835153 
z
" style="fill:#808080;stroke:#808080;stroke-linejoin:miter;stroke-width:0.5;"/>
   </g>
   <g id="patch_25">
    <path clip-path="url(#p6f8d8c9430)" d="M 274.125547 189.537635 
L 286.486423 189.537635 
L 286.486423 177.176759 
L 274.125547 177.176759 
z
" style="fill:#808080;stroke:#808080;stroke-linejoin:miter;stroke-width:0.5;"/>
   </g>
   <g id="patch_26">
    <path clip-path="url(#p6f8d8c9430)" d="M 203.491971 171.879241 
L 215.852847 171.879241 
L 215.852847 159.518365 
L 203.491971 159.518365 
z
" style="fill:#808080;stroke:#808080;stroke-linejoin:miter;stroke-width:0.5;"/>
   </g>
   <g id="patch_27">
    <path clip-path="url(#p6f8d8c9430)" d="M 221.150365 154.220847 
L 233.511241 154.220847 
L 233.511241 141.859971 
L 221.150365 141.859971 
z
" style="fill:#808080;stroke:#808080;stroke-linejoin:miter;stroke-width:0.5;"/>
   </g>
   <g id="patch_28">
    <path clip-path="url(#p6f8d8c9430)" d="M 256.467153 154.220847 
L 268.828029 154.220847 
L 268.828029 141.859971 
L 256.467153 141.859971 
z
" style="fill:#808080;stroke:#808080;stroke-linejoin:miter;stroke-width:0.5;"/>
   </g>
   <g id="patch_29">
    <path clip-path="url(#p6f8d8c9430)" d="M 238.808759 136.562453 
L 251.169635 136.562453 
L 251.169635 124.201577 
L 238.808759 124.201577 
z
" style="fill:#808080;stroke:#808080;stroke-linejoin:miter;stroke-width:0.5;"/>
   </g>
   <g id="patch_30">
    <path clip-path="url(#p6f8d8c9430)" d="M 203.491971 154.220847 
L 215.852847 154.220847 
L 215.852847 141.859971 
L 203.491971 141.859971 
z
" style="fill:#808080;stroke:#808080;stroke-linejoin:miter;stroke-width:0.5;"/>
   </g>
   <g id="patch_31">
    <path clip-path="url(#p6f8d8c9430)" d="M 221.150365 136.562453 
L 233.511241 136.562453 
L 233.511241 124.201577 
L 221.150365 124.201577 
z
" style="fill:#808080;stroke:#808080;stroke-linejoin:miter;stroke-width:0.5;"/>
   </g>
   <g id="patch_32">
    <path clip-path="url(#p6f8d8c9430)" d="M 291.783942 189.537635 
L 304.144818 189.537635 
L 304.144818 177.176759 
L 291.783942 177.176759 
z
" style="fill:#808080;stroke:#808080;stroke-linejoin:miter;stroke-width:0.5;"/>
   </g>
   <g id="patch_33">
    <path clip-path="url(#p6f8d8c9430)" d="M 274.125547 171.879241 
L 286.486423 171.879241 
L 286.486423 159.518365 
L 274.125547 159.518365 
z
" style="fill:#808080;stroke:#808080;stroke-linejoin:miter;stroke-width:0.5;"/>
   </g>
   <g id="patch_34">
    <path clip-path="url(#p6f8d8c9430)" d="M 203.491971 136.562453 
L 215.852847 136.562453 
L 215.852847 124.201577 
L 203.491971 124.201577 
z
" style="fill:#808080;stroke:#808080;stroke-linejoin:miter;stroke-width:0.5;"/>
   </g>
   <g id="patch_35">
    <path clip-path="url(#p6f8d8c9430)" d="M 221.150365 118.904058 
L 233.511241 118.904058 
L 233.511241 106.543182 
L 221.150365 106.543182 
z
" style="fill:#808080;stroke:#808080;stroke-linejoin:miter;stroke-width:0.5;"/>
   </g>
   <g id="patch_36">
    <path clip-path="url(#p6f8d8c9430)" d="M 309.442336 189.537635 
L 321.803212 189.537635 
L 321.803212 177.176759 
L 309.442336 177.176759 
z
" style="fill:#808080;stroke:#808080;stroke-linejoin:miter;stroke-width:0.5;"/>
   </g>
   <g id="patch_37">
    <path clip-path="url(#p6f8d8c9430)" d="M 291.783942 171.879241 
L 304.144818 171.879241 
L 304.144818 159.518365 
L 291.783942 159.518365 
z
" style="fill:#808080;stroke:#808080;stroke-linejoin:miter;stroke-width:0.5;"/>
   </g>
   <g id="patch_38">
    <path clip-path="url(#p6f8d8c9430)" d="M 185.833577 207.196029 
L 198.194453 207.196029 
L 198.194453 194.835153 
L 185.833577 194.835153 
z
" style="fill:#808080;stroke:#808080;stroke-linejoin:miter;stroke-width:0.5;"/>
   </g>
   <g id="patch_39">
    <path clip-path="url(#p6f8d8c9430)" d="M 203.491971 189.537635 
L 215.852847 189.537635 
L 215.852847 177.176759 
L 203.491971 177.176759 
z
" style="fill:#808080;stroke:#808080;stroke-linejoin:miter;stroke-width:0.5;"/>
   </g>
   <g id="patch_40">
    <path clip-path="url(#p6f8d8c9430)" d="M 274.125547 154.220847 
L 286.486423 154.220847 
L 286.486423 141.859971 
L 274.125547 141.859971 
z
" style="fill:#808080;stroke:#808080;stroke-linejoin:miter;stroke-width:0.5;"/>
   </g>
   <g id="patch_41">
    <path clip-path="url(#p6f8d8c9430)" d="M 274.125547 242.512818 
L 286.486423 242.512818 
L 286.486423 230.151942 
L 274.125547 230.151942 
z
" style="fill:#808080;stroke:#808080;stroke-linejoin:miter;stroke-width:0.5;"/>
   </g>
   <g id="patch_42">
    <path clip-path="url(#p6f8d8c9430)" d="M 256.467153 260.171212 
L 268.828029 260.171212 
L 268.828029 247.810336 
L 256.467153 247.810336 
z
" style="fill:#808080;stroke:#808080;stroke-linejoin:miter;stroke-width:0.5;"/>
   </g>
   <g id="patch_43">
    <path clip-path="url(#p6f8d8c9430)" d="M 168.175182 224.854423 
L 180.536058 224.854423 
L 180.536058 212.493547 
L 168.175182 212.493547 
z
" style="fill:#808080;stroke:#808080;stroke-linejoin:miter;stroke-width:0.5;"/>
   </g>
   <g id="patch_44">
    <path clip-path="url(#p6f8d8c9430)" d="M 185.833577 171.879241 
L 198.194453 171.879241 
L 198.194453 159.518365 
L 185.833577 159.518365 
z
" style="fill:#808080;stroke:#808080;stroke-linejoin:miter;stroke-width:0.5;"/>
   </g>
   <g id="patch_45">
    <path clip-path="url(#p6f8d8c9430)" d="M 185.833577 136.562453 
L 198.194453 136.562453 
L 198.194453 124.201577 
L 185.833577 124.201577 
z
" style="fill:#808080;stroke:#808080;stroke-linejoin:miter;stroke-width:0.5;"/>
   </g>
   <g id="patch_46">
    <path clip-path="url(#p6f8d8c9430)" d="M 203.491971 118.904058 
L 215.852847 118.904058 
L 215.852847 106.543182 
L 203.491971 106.543182 
z
" style="fill:#808080;stroke:#808080;stroke-linejoin:miter;stroke-width:0.5;"/>
   </g>
   <g id="patch_47">
    <path clip-path="url(#p6f8d8c9430)" d="M 168.175182 171.879241 
L 180.536058 171.879241 
L 180.536058 159.518365 
L 168.175182 159.518365 
z
" style="fill:#808080;stroke:#808080;stroke-linejoin:miter;stroke-width:0.5;"/>
   </g>
   <g id="patch_48">
    <path clip-path="url(#p6f8d8c9430)" d="M 185.833577 154.220847 
L 198.194453 154.220847 
L 198.194453 141.859971 
L 185.833577 141.859971 
z
" style="fill:#808080;stroke:#808080;stroke-linejoin:miter;stroke-width:0.5;"/>
   </g>
   <g id="patch_49">
    <path clip-path="url(#p6f8d8c9430)" d="M 256.467153 136.562453 
L 268.828029 136.562453 
L 268.828029 124.201577 
L 256.467153 124.201577 
z
" style="fill:#808080;stroke:#808080;stroke-linejoin:miter;stroke-width:0.5;"/>
   </g>
   <g id="patch_50">
    <path clip-path="url(#p6f8d8c9430)" d="M 221.150365 260.171212 
L 233.511241 260.171212 
L 233.511241 247.810336 
L 221.150365 247.810336 
z
" style="fill:#808080;stroke:#808080;stroke-linejoin:miter;stroke-width:0.5;"/>
   </g>
   <g id="patch_51">
    <path clip-path="url(#p6f8d8c9430)" d="M 238.808759 277.829606 
L 251.169635 277.829606 
L 251.169635 265.46873 
L 238.808759 265.46873 
z
" style="fill:#808080;stroke:#808080;stroke-linejoin:miter;stroke-width:0.5;"/>
   </g>
   <g id="patch_52">
    <path clip-path="url(#p6f8d8c9430)" d="M 150.516788 171.879241 
L 162.877664 171.879241 
L 162.877664 159.518365 
L 150.516788 159.518365 
z
" style="fill:#808080;stroke:#808080;stroke-linejoin:miter;stroke-width:0.5;"/>
   </g>
   <g id="patch_53">
    <path clip-path="url(#p6f8d8c9430)" d="M 168.175182 189.537635 
L 180.536058 189.537635 
L 180.536058 177.176759 
L 168.175182 177.176759 
z
" style="fill:#808080;stroke:#808080;stroke-linejoin:miter;stroke-width:0.5;"/>
   </g>
   <g id="patch_54">
    <path clip-path="url(#p6f8d8c9430)" d="M 203.491971 260.171212 
L 215.852847 260.171212 
L 215.852847 247.810336 
L 203.491971 247.810336 
z
" style="fill:#808080;stroke:#808080;stroke-linejoin:miter;stroke-width:0.5;"/>
   </g>
   <g id="patch_55">
    <path clip-path="url(#p6f8d8c9430)" d="M 185.833577 118.904058 
L 198.194453 118.904058 
L 198.194453 106.543182 
L 185.833577 106.543182 
z
" style="fill:#808080;stroke:#808080;stroke-linejoin:miter;stroke-width:0.5;"/>
   </g>
   <g id="patch_56">
    <path clip-path="url(#p6f8d8c9430)" d="M 203.491971 101.245664 
L 215.852847 101.245664 
L 215.852847 88.884788 
L 203.491971 88.884788 
z
" style="fill:#808080;stroke:#808080;stroke-linejoin:miter;stroke-width:0.5;"/>
   </g>
   <g id="patch_57">
    <path clip-path="url(#p6f8d8c9430)" d="M 132.858394 171.879241 
L 145.21927 171.879241 
L 145.21927 159.518365 
L 132.858394 159.518365 
z
" style="fill:#808080;stroke:#808080;stroke-linejoin:miter;stroke-width:0.5;"/>
   </g>
   <g id="patch_58">
    <path clip-path="url(#p6f8d8c9430)" d="M 150.516788 154.220847 
L 162.877664 154.220847 
L 162.877664 141.859971 
L 150.516788 141.859971 
z
" style="fill:#808080;stroke:#808080;stroke-linejoin:miter;stroke-width:0.5;"/>
   </g>
   <g id="patch_59">
    <path clip-path="url(#p6f8d8c9430)" d="M 150.516788 189.537635 
L 162.877664 189.537635 
L 162.877664 177.176759 
L 150.516788 177.176759 
z
" style="fill:#808080;stroke:#808080;stroke-linejoin:miter;stroke-width:0.5;"/>
   </g>
   <g id="patch_60">
    <path clip-path="url(#p6f8d8c9430)" d="M 221.150365 277.829606 
L 233.511241 277.829606 
L 233.511241 265.46873 
L 221.150365 265.46873 
z
" style="fill:#808080;stroke:#808080;stroke-linejoin:miter;stroke-width:0.5;"/>
   </g>
   <g id="patch_61">
    <path clip-path="url(#p6f8d8c9430)" d="M 238.808759 118.904058 
L 251.169635 118.904058 
L 251.169635 106.543182 
L 238.808759 106.543182 
z
" style="fill:#808080;stroke:#808080;stroke-linejoin:miter;stroke-width:0.5;"/>
   </g>
   <g id="patch_62">
    <path clip-path="url(#p6f8d8c9430)" d="M 274.125547 136.562453 
L 286.486423 136.562453 
L 286.486423 124.201577 
L 274.125547 124.201577 
z
" style="fill:#808080;stroke:#808080;stroke-linejoin:miter;stroke-width:0.5;"/>
   </g>
   <g id="patch_63">
    <path clip-path="url(#p6f8d8c9430)" d="M 185.833577 260.171212 
L 198.194453 260.171212 
L 198.194453 247.810336 
L 185.833577 247.810336 
z
" style="fill:#808080;stroke:#808080;stroke-linejoin:miter;stroke-width:0.5;"/>
   </g>
   <g id="patch_64">
    <path clip-path="url(#p6f8d8c9430)" d="M 203.491971 277.829606 
L 215.852847 277.829606 
L 215.852847 265.46873 
L 203.491971 265.46873 
z
" style="fill:#808080;stroke:#808080;stroke-linejoin:miter;stroke-width:0.5;"/>
   </g>
   <g id="patch_65">
    <path clip-path="url(#p6f8d8c9430)" d="M 291.783942 154.220847 
L 304.144818 154.220847 
L 304.144818 141.859971 
L 291.783942 141.859971 
z
" style="fill:#808080;stroke:#808080;stroke-linejoin:miter;stroke-width:0.5;"/>
   </g>
   <g id="patch_66">
    <path clip-path="url(#p6f8d8c9430)" d="M 115.2 171.879241 
L 127.560876 171.879241 
L 127.560876 159.518365 
L 115.2 159.518365 
z
" style="fill:#808080;stroke:#808080;stroke-linejoin:miter;stroke-width:0.5;"/>
   </g>
   <g id="patch_67">
    <path clip-path="url(#p6f8d8c9430)" d="M 132.858394 189.537635 
L 145.21927 189.537635 
L 145.21927 177.176759 
L 132.858394 177.176759 
z
" style="fill:#808080;stroke:#808080;stroke-linejoin:miter;stroke-width:0.5;"/>
   </g>
   <g id="patch_68">
    <path clip-path="url(#p6f8d8c9430)" d="M 221.150365 101.245664 
L 233.511241 101.245664 
L 233.511241 88.884788 
L 221.150365 88.884788 
z
" style="fill:#808080;stroke:#808080;stroke-linejoin:miter;stroke-width:0.5;"/>
   </g>
   <g id="patch_69">
    <path clip-path="url(#p6f8d8c9430)" d="M 185.833577 101.245664 
L 198.194453 101.245664 
L 198.194453 88.884788 
L 185.833577 88.884788 
z
" style="fill:#808080;stroke:#808080;stroke-linejoin:miter;stroke-width:0.5;"/>
   </g>
   <g id="patch_70">
    <path clip-path="url(#p6f8d8c9430)" d="M 203.491971 83.58727 
L 215.852847 83.58727 
L 215.852847 71.226394 
L 203.491971 71.226394 
z
" style="fill:#808080;stroke:#808080;stroke-linejoin:miter;stroke-width:0.5;"/>
   </g>
   <g id="patch_71">
    <path clip-path="url(#p6f8d8c9430)" d="M 168.175182 260.171212 
L 180.536058 260.171212 
L 180.536058 247.810336 
L 168.175182 247.810336 
z
" style="fill:#808080;stroke:#808080;stroke-linejoin:miter;stroke-width:0.5;"/>
   </g>
   <g id="patch_72">
    <path clip-path="url(#p6f8d8c9430)" d="M 185.833577 277.829606 
L 198.194453 277.829606 
L 198.194453 265.46873 
L 185.833577 265.46873 
z
" style="fill:#808080;stroke:#808080;stroke-linejoin:miter;stroke-width:0.5;"/>
   </g>
   <g id="patch_73">
    <path clip-path="url(#p6f8d8c9430)" d="M 168.175182 207.196029 
L 180.536058 207.196029 
L 180.536058 194.835153 
L 168.175182 194.835153 
z
" style="fill:#808080;stroke:#808080;stroke-linejoin:miter;stroke-width:0.5;"/>
   </g>
   <g id="patch_74">
    <path clip-path="url(#p6f8d8c9430)" d="M 291.783942 242.512818 
L 304.144818 242.512818 
L 304.144818 230.151942 
L 291.783942 230.151942 
z
" style="fill:#808080;stroke:#808080;stroke-linejoin:miter;stroke-width:0.5;"/>
   </g>
   <g id="patch_75">
    <path clip-path="url(#p6f8d8c9430)" d="M 168.175182 277.829606 
L 180.536058 277.829606 
L 180.536058 265.46873 
L 168.175182 265.46873 
z
" style="fill:#808080;stroke:#808080;stroke-linejoin:miter;stroke-width:0.5;"/>
   </g>
   <g id="patch_76">
    <path clip-path="url(#p6f8d8c9430)" d="M 185.833577 295.488 
L 198.194453 295.488 
L 198.194453 283.127124 
L 185.833577 283.127124 
z
" style="fill:#808080;stroke:#808080;stroke-linejoin:miter;stroke-width:0.5;"/>
   </g>
   <g id="patch_77">
    <path clip-path="url(#p6f8d8c9430)" d="M 309.442336 171.879241 
L 321.803212 171.879241 
L 321.803212 159.518365 
L 309.442336 159.518365 
z
" style="fill:#808080;stroke:#808080;stroke-linejoin:miter;stroke-width:0.5;"/>
   </g>
   <g id="patch_78">
    <path clip-path="url(#p6f8d8c9430)" d="M 168.175182 101.245664 
L 180.536058 101.245664 
L 180.536058 88.884788 
L 168.175182 88.884788 
z
" style="fill:#808080;stroke:#808080;stroke-linejoin:miter;stroke-width:0.5;"/>
   </g>
   <g id="patch_79">
    <path clip-path="url(#p6f8d8c9430)" d="M 150.516788 101.245664 
L 162.877664 101.245664 
L 162.877664 88.884788 
L 150.516788 88.884788 
z
" style="fill:#808080;stroke:#808080;stroke-linejoin:miter;stroke-width:0.5;"/>
   </g>
   <g id="patch_80">
    <path clip-path="url(#p6f8d8c9430)" d="M 221.150365 83.58727 
L 233.511241 83.58727 
L 233.511241 71.226394 
L 221.150365 71.226394 
z
" style="fill:#808080;stroke:#808080;stroke-linejoin:miter;stroke-width:0.5;"/>
   </g>
   <g id="patch_81">
    <path clip-path="url(#p6f8d8c9430)" d="M 327.10073 171.879241 
L 339.461606 171.879241 
L 339.461606 159.518365 
L 327.10073 159.518365 
z
" style="fill:#808080;stroke:#808080;stroke-linejoin:miter;stroke-width:0.5;"/>
   </g>
   <g id="patch_82">
    <path clip-path="url(#p6f8d8c9430)" d="M 309.442336 154.220847 
L 321.803212 154.220847 
L 321.803212 141.859971 
L 309.442336 141.859971 
z
" style="fill:#808080;stroke:#808080;stroke-linejoin:miter;stroke-width:0.5;"/>
   </g>
   <g id="patch_83">
    <path clip-path="url(#p6f8d8c9430)" d="M 115.2 189.537635 
L 127.560876 189.537635 
L 127.560876 177.176759 
L 115.2 177.176759 
z
" style="fill:#808080;stroke:#808080;stroke-linejoin:miter;stroke-width:0.5;"/>
   </g>
   <g id="patch_84">
    <path clip-path="url(#p6f8d8c9430)" d="M 309.442336 207.196029 
L 321.803212 207.196029 
L 321.803212 194.835153 
L 309.442336 194.835153 
z
" style="fill:#808080;stroke:#808080;stroke-linejoin:miter;stroke-width:0.5;"/>
   </g>
   <g id="patch_85">
    <path clip-path="url(#p6f8d8c9430)" d="M 150.516788 277.829606 
L 162.877664 277.829606 
L 162.877664 265.46873 
L 150.516788 265.46873 
z
" style="fill:#808080;stroke:#808080;stroke-linejoin:miter;stroke-width:0.5;"/>
   </g>
   <g id="patch_86">
    <path clip-path="url(#p6f8d8c9430)" d="M 344.759124 171.879241 
L 357.12 171.879241 
L 357.12 159.518365 
L 344.759124 159.518365 
z
" style="fill:#808080;stroke:#808080;stroke-linejoin:miter;stroke-width:0.5;"/>
   </g>
   <g id="patch_87">
    <path clip-path="url(#p6f8d8c9430)" d="M 362.417518 171.879241 
L 374.778394 171.879241 
L 374.778394 159.518365 
L 362.417518 159.518365 
z
" style="fill:#808080;stroke:#808080;stroke-linejoin:miter;stroke-width:0.5;"/>
   </g>
   <g id="patch_88">
    <path clip-path="url(#p6f8d8c9430)" d="M 344.759124 154.220847 
L 357.12 154.220847 
L 357.12 141.859971 
L 344.759124 141.859971 
z
" style="fill:#808080;stroke:#808080;stroke-linejoin:miter;stroke-width:0.5;"/>
   </g>
   <g id="patch_89">
    <path clip-path="url(#p6f8d8c9430)" d="M 344.759124 189.537635 
L 357.12 189.537635 
L 357.12 177.176759 
L 344.759124 177.176759 
z
" style="fill:#808080;stroke:#808080;stroke-linejoin:miter;stroke-width:0.5;"/>
   </g>
   <g id="patch_90">
    <path clip-path="url(#p6f8d8c9430)" d="M 327.10073 207.196029 
L 339.461606 207.196029 
L 339.461606 194.835153 
L 327.10073 194.835153 
z
" style="fill:#808080;stroke:#808080;stroke-linejoin:miter;stroke-width:0.5;"/>
   </g>
   <g id="patch_91">
    <path clip-path="url(#p6f8d8c9430)" d="M 344.759124 207.196029 
L 357.12 207.196029 
L 357.12 194.835153 
L 344.759124 194.835153 
z
" style="fill:#808080;stroke:#808080;stroke-linejoin:miter;stroke-width:0.5;"/>
   </g>
   <g id="patch_92">
    <path clip-path="url(#p6f8d8c9430)" d="M 327.10073 224.854423 
L 339.461606 224.854423 
L 339.461606 212.493547 
L 327.10073 212.493547 
z
" style="fill:#808080;stroke:#808080;stroke-linejoin:miter;stroke-width:0.5;"/>
   </g>
   <g id="patch_93">
    <path clip-path="url(#p6f8d8c9430)" d="M 115.2 154.220847 
L 127.560876 154.220847 
L 127.560876 141.859971 
L 115.2 141.859971 
z
" style="fill:#808080;stroke:#808080;stroke-linejoin:miter;stroke-width:0.5;"/>
   </g>
   <g id="patch_94">
    <path clip-path="url(#p6f8d8c9430)" d="M 291.783942 224.854423 
L 304.144818 224.854423 
L 304.144818 212.493547 
L 291.783942 212.493547 
z
" style="fill:#808080;stroke:#808080;stroke-linejoin:miter;stroke-width:0.5;"/>
   </g>
   <g id="patch_95">
    <path clip-path="url(#p6f8d8c9430)" d="M 115.2 136.562453 
L 127.560876 136.562453 
L 127.560876 124.201577 
L 115.2 124.201577 
z
" style="fill:#808080;stroke:#808080;stroke-linejoin:miter;stroke-width:0.5;"/>
   </g>
   <g id="patch_96">
    <path clip-path="url(#p6f8d8c9430)" d="M 256.467153 277.829606 
L 268.828029 277.829606 
L 268.828029 265.46873 
L 256.467153 265.46873 
z
" style="fill:#808080;stroke:#808080;stroke-linejoin:miter;stroke-width:0.5;"/>
   </g>
   <g id="patch_97">
    <path clip-path="url(#p6f8d8c9430)" d="M 150.516788 224.854423 
L 162.877664 224.854423 
L 162.877664 212.493547 
L 150.516788 212.493547 
z
" style="fill:#808080;stroke:#808080;stroke-linejoin:miter;stroke-width:0.5;"/>
   </g>
   <g id="patch_98">
    <path clip-path="url(#p6f8d8c9430)" d="M 238.808759 295.488 
L 251.169635 295.488 
L 251.169635 283.127124 
L 238.808759 283.127124 
z
" style="fill:#808080;stroke:#808080;stroke-linejoin:miter;stroke-width:0.5;"/>
   </g>
   <g id="patch_99">
    <path clip-path="url(#p6f8d8c9430)" d="M 221.150365 65.928876 
L 233.511241 65.928876 
L 233.511241 53.568 
L 221.150365 53.568 
z
" style="fill:#808080;stroke:#808080;stroke-linejoin:miter;stroke-width:0.5;"/>
   </g>
   <g id="patch_100">
    <path clip-path="url(#p6f8d8c9430)" d="M 97.541606 189.537635 
L 109.902482 189.537635 
L 109.902482 177.176759 
L 97.541606 177.176759 
z
" style="fill:#808080;stroke:#808080;stroke-linejoin:miter;stroke-width:0.5;"/>
   </g>
   <g id="patch_101">
    <path clip-path="url(#p6f8d8c9430)" d="M 150.516788 295.488 
L 162.877664 295.488 
L 162.877664 283.127124 
L 150.516788 283.127124 
z
" style="fill:#808080;stroke:#808080;stroke-linejoin:miter;stroke-width:0.5;"/>
   </g>
   <g id="patch_102">
    <path clip-path="url(#p6f8d8c9430)" d="M 185.833577 189.537635 
L 198.194453 189.537635 
L 198.194453 177.176759 
L 185.833577 177.176759 
z
" style="fill:#ff0000;stroke:#ff0000;stroke-linejoin:miter;stroke-width:0.5;"/>
   </g>
   <g id="patch_103">
    <path clip-path="url(#p6f8d8c9430)" d="M 327.10073 189.537635 
L 339.461606 189.537635 
L 339.461606 177.176759 
L 327.10073 177.176759 
z
" style="fill:#ff0000;stroke:#ff0000;stroke-linejoin:miter;stroke-width:0.5;"/>
   </g>
   <g id="patch_104">
    <path clip-path="url(#p6f8d8c9430)" d="M 274.125547 224.854423 
L 286.486423 224.854423 
L 286.486423 212.493547 
L 274.125547 212.493547 
z
" style="fill:#ff0000;stroke:#ff0000;stroke-linejoin:miter;stroke-width:0.5;"/>
   </g>
   <g id="patch_105">
    <path clip-path="url(#p6f8d8c9430)" d="M 238.808759 207.196029 
L 251.169635 207.196029 
L 251.169635 194.835153 
L 238.808759 194.835153 
z
" style="fill:#008000;stroke:#008000;stroke-linejoin:miter;stroke-width:0.5;"/>
   </g>
  </g>
 </g>
 <defs>
  <clipPath id="p6f8d8c9430">
   <rect height="266.112" width="304.960467" x="83.679766" y="41.472"/>
  </clipPath>
 </defs>
</svg>
