<?xml version="1.0" encoding="utf-8" standalone="no"?>
<!DOCTYPE svg PUBLIC "-//W3C//DTD SVG 1.1//EN"
  "http://www.w3.org/Graphics/SVG/1.1/DTD/svg11.dtd">
<!-- Created with matplotlib (https://matplotlib.org/) -->
<svg height="345.6pt" version="1.1" viewBox="0 0 460.8 345.6" width="460.8pt" xmlns="http://www.w3.org/2000/svg" xmlns:xlink="http://www.w3.org/1999/xlink">
 <defs>
  <style type="text/css">
*{stroke-linecap:butt;stroke-linejoin:round;}
  </style>
 </defs>
 <g id="figure_1">
  <g id="patch_1">
   <path d="M 0 345.6 
L 460.8 345.6 
L 460.8 0 
L 0 0 
z
" style="fill:#ffffff;"/>
  </g>
  <g id="axes_1">
   <g id="patch_2">
    <path clip-path="url(#p2903689c17)" d="M 239.261538 171.426462 
L 295.089231 171.426462 
L 295.089231 115.598769 
L 239.261538 115.598769 
z
" style="fill:#808080;stroke:#808080;stroke-linejoin:miter;stroke-width:0.5;"/>
   </g>
   <g id="patch_3">
    <path clip-path="url(#p2903689c17)" d="M 239.261538 109.395692 
L 295.089231 109.395692 
L 295.089231 53.568 
L 239.261538 53.568 
z
" style="fill:#808080;stroke:#808080;stroke-linejoin:miter;stroke-width:0.5;"/>
   </g>
   <g id="patch_4">
    <path clip-path="url(#p2903689c17)" d="M 239.261538 233.457231 
L 295.089231 233.457231 
L 295.089231 177.629538 
L 239.261538 177.629538 
z
" style="fill:#808080;stroke:#808080;stroke-linejoin:miter;stroke-width:0.5;"/>
   </g>
   <g id="patch_5">
    <path clip-path="url(#p2903689c17)" d="M 239.261538 295.488 
L 295.089231 295.488 
L 295.089231 239.660308 
L 239.261538 239.660308 
z
" style="fill:#808080;stroke:#808080;stroke-linejoin:miter;stroke-width:0.5;"/>
   </g>
   <g id="patch_6">
    <path clip-path="url(#p2903689c17)" d="M 177.230769 295.488 
L 233.058462 295.488 
L 233.058462 239.660308 
L 177.230769 239.660308 
z
" style="fill:#808080;stroke:#808080;stroke-linejoin:miter;stroke-width:0.5;"/>
   </g>
   <g id="patch_7">
    <path clip-path="url(#p2903689c17)" d="M 239.261538 171.426462 
L 295.089231 171.426462 
L 295.089231 115.598769 
L 239.261538 115.598769 
z
" style="fill:#008000;stroke:#008000;stroke-linejoin:miter;stroke-width:0.5;"/>
   </g>
  </g>
 </g>
 <defs>
  <clipPath id="p2903689c17">
   <rect height="266.112" width="129.644308" x="171.337846" y="41.472"/>
  </clipPath>
 </defs>
</svg>
