<?xml version="1.0" encoding="utf-8" standalone="no"?>
<!DOCTYPE svg PUBLIC "-//W3C//DTD SVG 1.1//EN"
  "http://www.w3.org/Graphics/SVG/1.1/DTD/svg11.dtd">
<!-- Created with matplotlib (https://matplotlib.org/) -->
<svg height="345.6pt" version="1.1" viewBox="0 0 460.8 345.6" width="460.8pt" xmlns="http://www.w3.org/2000/svg" xmlns:xlink="http://www.w3.org/1999/xlink">
 <defs>
  <style type="text/css">
*{stroke-linecap:butt;stroke-linejoin:round;}
  </style>
 </defs>
 <g id="figure_1">
  <g id="patch_1">
   <path d="M 0 345.6 
L 460.8 345.6 
L 460.8 0 
L 0 0 
z
" style="fill:#ffffff;"/>
  </g>
  <g id="axes_1">
   <g id="patch_2">
    <path clip-path="url(#p1c576502ed)" d="M 240.872727 169.815273 
L 262.865455 169.815273 
L 262.865455 147.822545 
L 240.872727 147.822545 
z
" style="fill:#808080;stroke:#808080;stroke-linejoin:miter;stroke-width:0.5;"/>
   </g>
   <g id="patch_3">
    <path clip-path="url(#p1c576502ed)" d="M 272.290909 169.815273 
L 294.283636 169.815273 
L 294.283636 147.822545 
L 272.290909 147.822545 
z
" style="fill:#808080;stroke:#808080;stroke-linejoin:miter;stroke-width:0.5;"/>
   </g>
   <g id="patch_4">
    <path clip-path="url(#p1c576502ed)" d="M 209.454545 169.815273 
L 231.447273 169.815273 
L 231.447273 147.822545 
L 209.454545 147.822545 
z
" style="fill:#808080;stroke:#808080;stroke-linejoin:miter;stroke-width:0.5;"/>
   </g>
   <g id="patch_5">
    <path clip-path="url(#p1c576502ed)" d="M 240.872727 138.397091 
L 262.865455 138.397091 
L 262.865455 116.404364 
L 240.872727 116.404364 
z
" style="fill:#808080;stroke:#808080;stroke-linejoin:miter;stroke-width:0.5;"/>
   </g>
   <g id="patch_6">
    <path clip-path="url(#p1c576502ed)" d="M 240.872727 201.233455 
L 262.865455 201.233455 
L 262.865455 179.240727 
L 240.872727 179.240727 
z
" style="fill:#808080;stroke:#808080;stroke-linejoin:miter;stroke-width:0.5;"/>
   </g>
   <g id="patch_7">
    <path clip-path="url(#p1c576502ed)" d="M 272.290909 138.397091 
L 294.283636 138.397091 
L 294.283636 116.404364 
L 272.290909 116.404364 
z
" style="fill:#808080;stroke:#808080;stroke-linejoin:miter;stroke-width:0.5;"/>
   </g>
   <g id="patch_8">
    <path clip-path="url(#p1c576502ed)" d="M 272.290909 201.233455 
L 294.283636 201.233455 
L 294.283636 179.240727 
L 272.290909 179.240727 
z
" style="fill:#808080;stroke:#808080;stroke-linejoin:miter;stroke-width:0.5;"/>
   </g>
   <g id="patch_9">
    <path clip-path="url(#p1c576502ed)" d="M 209.454545 138.397091 
L 231.447273 138.397091 
L 231.447273 116.404364 
L 209.454545 116.404364 
z
" style="fill:#808080;stroke:#808080;stroke-linejoin:miter;stroke-width:0.5;"/>
   </g>
   <g id="patch_10">
    <path clip-path="url(#p1c576502ed)" d="M 209.454545 201.233455 
L 231.447273 201.233455 
L 231.447273 179.240727 
L 209.454545 179.240727 
z
" style="fill:#808080;stroke:#808080;stroke-linejoin:miter;stroke-width:0.5;"/>
   </g>
   <g id="patch_11">
    <path clip-path="url(#p1c576502ed)" d="M 178.036364 201.233455 
L 200.029091 201.233455 
L 200.029091 179.240727 
L 178.036364 179.240727 
z
" style="fill:#808080;stroke:#808080;stroke-linejoin:miter;stroke-width:0.5;"/>
   </g>
   <g id="patch_12">
    <path clip-path="url(#p1c576502ed)" d="M 209.454545 232.651636 
L 231.447273 232.651636 
L 231.447273 210.658909 
L 209.454545 210.658909 
z
" style="fill:#808080;stroke:#808080;stroke-linejoin:miter;stroke-width:0.5;"/>
   </g>
   <g id="patch_13">
    <path clip-path="url(#p1c576502ed)" d="M 240.872727 232.651636 
L 262.865455 232.651636 
L 262.865455 210.658909 
L 240.872727 210.658909 
z
" style="fill:#808080;stroke:#808080;stroke-linejoin:miter;stroke-width:0.5;"/>
   </g>
   <g id="patch_14">
    <path clip-path="url(#p1c576502ed)" d="M 209.454545 106.978909 
L 231.447273 106.978909 
L 231.447273 84.986182 
L 209.454545 84.986182 
z
" style="fill:#808080;stroke:#808080;stroke-linejoin:miter;stroke-width:0.5;"/>
   </g>
   <g id="patch_15">
    <path clip-path="url(#p1c576502ed)" d="M 146.618182 201.233455 
L 168.610909 201.233455 
L 168.610909 179.240727 
L 146.618182 179.240727 
z
" style="fill:#808080;stroke:#808080;stroke-linejoin:miter;stroke-width:0.5;"/>
   </g>
   <g id="patch_16">
    <path clip-path="url(#p1c576502ed)" d="M 178.036364 232.651636 
L 200.029091 232.651636 
L 200.029091 210.658909 
L 178.036364 210.658909 
z
" style="fill:#808080;stroke:#808080;stroke-linejoin:miter;stroke-width:0.5;"/>
   </g>
   <g id="patch_17">
    <path clip-path="url(#p1c576502ed)" d="M 209.454545 264.069818 
L 231.447273 264.069818 
L 231.447273 242.077091 
L 209.454545 242.077091 
z
" style="fill:#808080;stroke:#808080;stroke-linejoin:miter;stroke-width:0.5;"/>
   </g>
   <g id="patch_18">
    <path clip-path="url(#p1c576502ed)" d="M 240.872727 106.978909 
L 262.865455 106.978909 
L 262.865455 84.986182 
L 240.872727 84.986182 
z
" style="fill:#808080;stroke:#808080;stroke-linejoin:miter;stroke-width:0.5;"/>
   </g>
   <g id="patch_19">
    <path clip-path="url(#p1c576502ed)" d="M 178.036364 106.978909 
L 200.029091 106.978909 
L 200.029091 84.986182 
L 178.036364 84.986182 
z
" style="fill:#808080;stroke:#808080;stroke-linejoin:miter;stroke-width:0.5;"/>
   </g>
   <g id="patch_20">
    <path clip-path="url(#p1c576502ed)" d="M 209.454545 75.560727 
L 231.447273 75.560727 
L 231.447273 53.568 
L 209.454545 53.568 
z
" style="fill:#808080;stroke:#808080;stroke-linejoin:miter;stroke-width:0.5;"/>
   </g>
   <g id="patch_21">
    <path clip-path="url(#p1c576502ed)" d="M 178.036364 264.069818 
L 200.029091 264.069818 
L 200.029091 242.077091 
L 178.036364 242.077091 
z
" style="fill:#808080;stroke:#808080;stroke-linejoin:miter;stroke-width:0.5;"/>
   </g>
   <g id="patch_22">
    <path clip-path="url(#p1c576502ed)" d="M 209.454545 295.488 
L 231.447273 295.488 
L 231.447273 273.495273 
L 209.454545 273.495273 
z
" style="fill:#808080;stroke:#808080;stroke-linejoin:miter;stroke-width:0.5;"/>
   </g>
   <g id="patch_23">
    <path clip-path="url(#p1c576502ed)" d="M 303.709091 138.397091 
L 325.701818 138.397091 
L 325.701818 116.404364 
L 303.709091 116.404364 
z
" style="fill:#808080;stroke:#808080;stroke-linejoin:miter;stroke-width:0.5;"/>
   </g>
   <g id="patch_24">
    <path clip-path="url(#p1c576502ed)" d="M 272.290909 106.978909 
L 294.283636 106.978909 
L 294.283636 84.986182 
L 272.290909 84.986182 
z
" style="fill:#808080;stroke:#808080;stroke-linejoin:miter;stroke-width:0.5;"/>
   </g>
   <g id="patch_25">
    <path clip-path="url(#p1c576502ed)" d="M 146.618182 232.651636 
L 168.610909 232.651636 
L 168.610909 210.658909 
L 146.618182 210.658909 
z
" style="fill:#808080;stroke:#808080;stroke-linejoin:miter;stroke-width:0.5;"/>
   </g>
   <g id="patch_26">
    <path clip-path="url(#p1c576502ed)" d="M 146.618182 264.069818 
L 168.610909 264.069818 
L 168.610909 242.077091 
L 146.618182 242.077091 
z
" style="fill:#808080;stroke:#808080;stroke-linejoin:miter;stroke-width:0.5;"/>
   </g>
   <g id="patch_27">
    <path clip-path="url(#p1c576502ed)" d="M 335.127273 138.397091 
L 357.12 138.397091 
L 357.12 116.404364 
L 335.127273 116.404364 
z
" style="fill:#808080;stroke:#808080;stroke-linejoin:miter;stroke-width:0.5;"/>
   </g>
   <g id="patch_28">
    <path clip-path="url(#p1c576502ed)" d="M 303.709091 106.978909 
L 325.701818 106.978909 
L 325.701818 84.986182 
L 303.709091 84.986182 
z
" style="fill:#808080;stroke:#808080;stroke-linejoin:miter;stroke-width:0.5;"/>
   </g>
   <g id="patch_29">
    <path clip-path="url(#p1c576502ed)" d="M 178.036364 295.488 
L 200.029091 295.488 
L 200.029091 273.495273 
L 178.036364 273.495273 
z
" style="fill:#808080;stroke:#808080;stroke-linejoin:miter;stroke-width:0.5;"/>
   </g>
   <g id="patch_30">
    <path clip-path="url(#p1c576502ed)" d="M 115.2 201.233455 
L 137.192727 201.233455 
L 137.192727 179.240727 
L 115.2 179.240727 
z
" style="fill:#808080;stroke:#808080;stroke-linejoin:miter;stroke-width:0.5;"/>
   </g>
   <g id="patch_31">
    <path clip-path="url(#p1c576502ed)" d="M 115.2 264.069818 
L 137.192727 264.069818 
L 137.192727 242.077091 
L 115.2 242.077091 
z
" style="fill:#808080;stroke:#808080;stroke-linejoin:miter;stroke-width:0.5;"/>
   </g>
   <g id="patch_32">
    <path clip-path="url(#p1c576502ed)" d="M 240.872727 169.815273 
L 262.865455 169.815273 
L 262.865455 147.822545 
L 240.872727 147.822545 
z
" style="fill:#008000;stroke:#008000;stroke-linejoin:miter;stroke-width:0.5;"/>
   </g>
  </g>
 </g>
 <defs>
  <clipPath id="p1c576502ed">
   <rect height="266.112" width="266.112" x="103.104" y="41.472"/>
  </clipPath>
 </defs>
</svg>
