<?xml version="1.0" encoding="utf-8" standalone="no"?>
<!DOCTYPE svg PUBLIC "-//W3C//DTD SVG 1.1//EN"
  "http://www.w3.org/Graphics/SVG/1.1/DTD/svg11.dtd">
<!-- Created with matplotlib (https://matplotlib.org/) -->
<svg height="345.6pt" version="1.1" viewBox="0 0 460.8 345.6" width="460.8pt" xmlns="http://www.w3.org/2000/svg" xmlns:xlink="http://www.w3.org/1999/xlink">
 <defs>
  <style type="text/css">
*{stroke-linecap:butt;stroke-linejoin:round;}
  </style>
 </defs>
 <g id="figure_1">
  <g id="patch_1">
   <path d="M 0 345.6 
L 460.8 345.6 
L 460.8 0 
L 0 0 
z
" style="fill:#ffffff;"/>
  </g>
  <g id="axes_1">
   <g id="patch_2">
    <path clip-path="url(#p0262187b0c)" d="M 249.6 171.426462 
L 264.073846 171.426462 
L 264.073846 156.952615 
L 249.6 156.952615 
z
" style="fill:#808080;stroke:#808080;stroke-linejoin:miter;stroke-width:0.5;"/>
   </g>
   <g id="patch_3">
    <path clip-path="url(#p0262187b0c)" d="M 270.276923 171.426462 
L 284.750769 171.426462 
L 284.750769 156.952615 
L 270.276923 156.952615 
z
" style="fill:#808080;stroke:#808080;stroke-linejoin:miter;stroke-width:0.5;"/>
   </g>
   <g id="patch_4">
    <path clip-path="url(#p0262187b0c)" d="M 228.923077 171.426462 
L 243.396923 171.426462 
L 243.396923 156.952615 
L 228.923077 156.952615 
z
" style="fill:#808080;stroke:#808080;stroke-linejoin:miter;stroke-width:0.5;"/>
   </g>
   <g id="patch_5">
    <path clip-path="url(#p0262187b0c)" d="M 249.6 150.749538 
L 264.073846 150.749538 
L 264.073846 136.275692 
L 249.6 136.275692 
z
" style="fill:#808080;stroke:#808080;stroke-linejoin:miter;stroke-width:0.5;"/>
   </g>
   <g id="patch_6">
    <path clip-path="url(#p0262187b0c)" d="M 249.6 192.103385 
L 264.073846 192.103385 
L 264.073846 177.629538 
L 249.6 177.629538 
z
" style="fill:#808080;stroke:#808080;stroke-linejoin:miter;stroke-width:0.5;"/>
   </g>
   <g id="patch_7">
    <path clip-path="url(#p0262187b0c)" d="M 208.246154 171.426462 
L 222.72 171.426462 
L 222.72 156.952615 
L 208.246154 156.952615 
z
" style="fill:#808080;stroke:#808080;stroke-linejoin:miter;stroke-width:0.5;"/>
   </g>
   <g id="patch_8">
    <path clip-path="url(#p0262187b0c)" d="M 228.923077 150.749538 
L 243.396923 150.749538 
L 243.396923 136.275692 
L 228.923077 136.275692 
z
" style="fill:#808080;stroke:#808080;stroke-linejoin:miter;stroke-width:0.5;"/>
   </g>
   <g id="patch_9">
    <path clip-path="url(#p0262187b0c)" d="M 228.923077 192.103385 
L 243.396923 192.103385 
L 243.396923 177.629538 
L 228.923077 177.629538 
z
" style="fill:#808080;stroke:#808080;stroke-linejoin:miter;stroke-width:0.5;"/>
   </g>
   <g id="patch_10">
    <path clip-path="url(#p0262187b0c)" d="M 270.276923 192.103385 
L 284.750769 192.103385 
L 284.750769 177.629538 
L 270.276923 177.629538 
z
" style="fill:#808080;stroke:#808080;stroke-linejoin:miter;stroke-width:0.5;"/>
   </g>
   <g id="patch_11">
    <path clip-path="url(#p0262187b0c)" d="M 249.6 212.780308 
L 264.073846 212.780308 
L 264.073846 198.306462 
L 249.6 198.306462 
z
" style="fill:#808080;stroke:#808080;stroke-linejoin:miter;stroke-width:0.5;"/>
   </g>
   <g id="patch_12">
    <path clip-path="url(#p0262187b0c)" d="M 208.246154 150.749538 
L 222.72 150.749538 
L 222.72 136.275692 
L 208.246154 136.275692 
z
" style="fill:#808080;stroke:#808080;stroke-linejoin:miter;stroke-width:0.5;"/>
   </g>
   <g id="patch_13">
    <path clip-path="url(#p0262187b0c)" d="M 208.246154 192.103385 
L 222.72 192.103385 
L 222.72 177.629538 
L 208.246154 177.629538 
z
" style="fill:#808080;stroke:#808080;stroke-linejoin:miter;stroke-width:0.5;"/>
   </g>
   <g id="patch_14">
    <path clip-path="url(#p0262187b0c)" d="M 270.276923 212.780308 
L 284.750769 212.780308 
L 284.750769 198.306462 
L 270.276923 198.306462 
z
" style="fill:#808080;stroke:#808080;stroke-linejoin:miter;stroke-width:0.5;"/>
   </g>
   <g id="patch_15">
    <path clip-path="url(#p0262187b0c)" d="M 228.923077 212.780308 
L 243.396923 212.780308 
L 243.396923 198.306462 
L 228.923077 198.306462 
z
" style="fill:#808080;stroke:#808080;stroke-linejoin:miter;stroke-width:0.5;"/>
   </g>
   <g id="patch_16">
    <path clip-path="url(#p0262187b0c)" d="M 249.6 233.457231 
L 264.073846 233.457231 
L 264.073846 218.983385 
L 249.6 218.983385 
z
" style="fill:#808080;stroke:#808080;stroke-linejoin:miter;stroke-width:0.5;"/>
   </g>
   <g id="patch_17">
    <path clip-path="url(#p0262187b0c)" d="M 290.953846 212.780308 
L 305.427692 212.780308 
L 305.427692 198.306462 
L 290.953846 198.306462 
z
" style="fill:#808080;stroke:#808080;stroke-linejoin:miter;stroke-width:0.5;"/>
   </g>
   <g id="patch_18">
    <path clip-path="url(#p0262187b0c)" d="M 270.276923 233.457231 
L 284.750769 233.457231 
L 284.750769 218.983385 
L 270.276923 218.983385 
z
" style="fill:#808080;stroke:#808080;stroke-linejoin:miter;stroke-width:0.5;"/>
   </g>
   <g id="patch_19">
    <path clip-path="url(#p0262187b0c)" d="M 290.953846 233.457231 
L 305.427692 233.457231 
L 305.427692 218.983385 
L 290.953846 218.983385 
z
" style="fill:#808080;stroke:#808080;stroke-linejoin:miter;stroke-width:0.5;"/>
   </g>
   <g id="patch_20">
    <path clip-path="url(#p0262187b0c)" d="M 270.276923 254.134154 
L 284.750769 254.134154 
L 284.750769 239.660308 
L 270.276923 239.660308 
z
" style="fill:#808080;stroke:#808080;stroke-linejoin:miter;stroke-width:0.5;"/>
   </g>
   <g id="patch_21">
    <path clip-path="url(#p0262187b0c)" d="M 187.569231 192.103385 
L 202.043077 192.103385 
L 202.043077 177.629538 
L 187.569231 177.629538 
z
" style="fill:#808080;stroke:#808080;stroke-linejoin:miter;stroke-width:0.5;"/>
   </g>
   <g id="patch_22">
    <path clip-path="url(#p0262187b0c)" d="M 208.246154 212.780308 
L 222.72 212.780308 
L 222.72 198.306462 
L 208.246154 198.306462 
z
" style="fill:#808080;stroke:#808080;stroke-linejoin:miter;stroke-width:0.5;"/>
   </g>
   <g id="patch_23">
    <path clip-path="url(#p0262187b0c)" d="M 290.953846 171.426462 
L 305.427692 171.426462 
L 305.427692 156.952615 
L 290.953846 156.952615 
z
" style="fill:#808080;stroke:#808080;stroke-linejoin:miter;stroke-width:0.5;"/>
   </g>
   <g id="patch_24">
    <path clip-path="url(#p0262187b0c)" d="M 270.276923 150.749538 
L 284.750769 150.749538 
L 284.750769 136.275692 
L 270.276923 136.275692 
z
" style="fill:#808080;stroke:#808080;stroke-linejoin:miter;stroke-width:0.5;"/>
   </g>
   <g id="patch_25">
    <path clip-path="url(#p0262187b0c)" d="M 311.630769 212.780308 
L 326.104615 212.780308 
L 326.104615 198.306462 
L 311.630769 198.306462 
z
" style="fill:#808080;stroke:#808080;stroke-linejoin:miter;stroke-width:0.5;"/>
   </g>
   <g id="patch_26">
    <path clip-path="url(#p0262187b0c)" d="M 187.569231 212.780308 
L 202.043077 212.780308 
L 202.043077 198.306462 
L 187.569231 198.306462 
z
" style="fill:#808080;stroke:#808080;stroke-linejoin:miter;stroke-width:0.5;"/>
   </g>
   <g id="patch_27">
    <path clip-path="url(#p0262187b0c)" d="M 208.246154 233.457231 
L 222.72 233.457231 
L 222.72 218.983385 
L 208.246154 218.983385 
z
" style="fill:#808080;stroke:#808080;stroke-linejoin:miter;stroke-width:0.5;"/>
   </g>
   <g id="patch_28">
    <path clip-path="url(#p0262187b0c)" d="M 290.953846 150.749538 
L 305.427692 150.749538 
L 305.427692 136.275692 
L 290.953846 136.275692 
z
" style="fill:#808080;stroke:#808080;stroke-linejoin:miter;stroke-width:0.5;"/>
   </g>
   <g id="patch_29">
    <path clip-path="url(#p0262187b0c)" d="M 270.276923 130.072615 
L 284.750769 130.072615 
L 284.750769 115.598769 
L 270.276923 115.598769 
z
" style="fill:#808080;stroke:#808080;stroke-linejoin:miter;stroke-width:0.5;"/>
   </g>
   <g id="patch_30">
    <path clip-path="url(#p0262187b0c)" d="M 228.923077 233.457231 
L 243.396923 233.457231 
L 243.396923 218.983385 
L 228.923077 218.983385 
z
" style="fill:#808080;stroke:#808080;stroke-linejoin:miter;stroke-width:0.5;"/>
   </g>
   <g id="patch_31">
    <path clip-path="url(#p0262187b0c)" d="M 249.6 254.134154 
L 264.073846 254.134154 
L 264.073846 239.660308 
L 249.6 239.660308 
z
" style="fill:#808080;stroke:#808080;stroke-linejoin:miter;stroke-width:0.5;"/>
   </g>
   <g id="patch_32">
    <path clip-path="url(#p0262187b0c)" d="M 187.569231 150.749538 
L 202.043077 150.749538 
L 202.043077 136.275692 
L 187.569231 136.275692 
z
" style="fill:#808080;stroke:#808080;stroke-linejoin:miter;stroke-width:0.5;"/>
   </g>
   <g id="patch_33">
    <path clip-path="url(#p0262187b0c)" d="M 208.246154 130.072615 
L 222.72 130.072615 
L 222.72 115.598769 
L 208.246154 115.598769 
z
" style="fill:#808080;stroke:#808080;stroke-linejoin:miter;stroke-width:0.5;"/>
   </g>
   <g id="patch_34">
    <path clip-path="url(#p0262187b0c)" d="M 332.307692 212.780308 
L 346.781538 212.780308 
L 346.781538 198.306462 
L 332.307692 198.306462 
z
" style="fill:#808080;stroke:#808080;stroke-linejoin:miter;stroke-width:0.5;"/>
   </g>
   <g id="patch_35">
    <path clip-path="url(#p0262187b0c)" d="M 311.630769 192.103385 
L 326.104615 192.103385 
L 326.104615 177.629538 
L 311.630769 177.629538 
z
" style="fill:#808080;stroke:#808080;stroke-linejoin:miter;stroke-width:0.5;"/>
   </g>
   <g id="patch_36">
    <path clip-path="url(#p0262187b0c)" d="M 311.630769 233.457231 
L 326.104615 233.457231 
L 326.104615 218.983385 
L 311.630769 218.983385 
z
" style="fill:#808080;stroke:#808080;stroke-linejoin:miter;stroke-width:0.5;"/>
   </g>
   <g id="patch_37">
    <path clip-path="url(#p0262187b0c)" d="M 332.307692 192.103385 
L 346.781538 192.103385 
L 346.781538 177.629538 
L 332.307692 177.629538 
z
" style="fill:#808080;stroke:#808080;stroke-linejoin:miter;stroke-width:0.5;"/>
   </g>
   <g id="patch_38">
    <path clip-path="url(#p0262187b0c)" d="M 311.630769 171.426462 
L 326.104615 171.426462 
L 326.104615 156.952615 
L 311.630769 156.952615 
z
" style="fill:#808080;stroke:#808080;stroke-linejoin:miter;stroke-width:0.5;"/>
   </g>
   <g id="patch_39">
    <path clip-path="url(#p0262187b0c)" d="M 166.892308 150.749538 
L 181.366154 150.749538 
L 181.366154 136.275692 
L 166.892308 136.275692 
z
" style="fill:#808080;stroke:#808080;stroke-linejoin:miter;stroke-width:0.5;"/>
   </g>
   <g id="patch_40">
    <path clip-path="url(#p0262187b0c)" d="M 187.569231 130.072615 
L 202.043077 130.072615 
L 202.043077 115.598769 
L 187.569231 115.598769 
z
" style="fill:#808080;stroke:#808080;stroke-linejoin:miter;stroke-width:0.5;"/>
   </g>
   <g id="patch_41">
    <path clip-path="url(#p0262187b0c)" d="M 228.923077 254.134154 
L 243.396923 254.134154 
L 243.396923 239.660308 
L 228.923077 239.660308 
z
" style="fill:#808080;stroke:#808080;stroke-linejoin:miter;stroke-width:0.5;"/>
   </g>
   <g id="patch_42">
    <path clip-path="url(#p0262187b0c)" d="M 249.6 274.811077 
L 264.073846 274.811077 
L 264.073846 260.337231 
L 249.6 260.337231 
z
" style="fill:#808080;stroke:#808080;stroke-linejoin:miter;stroke-width:0.5;"/>
   </g>
   <g id="patch_43">
    <path clip-path="url(#p0262187b0c)" d="M 332.307692 171.426462 
L 346.781538 171.426462 
L 346.781538 156.952615 
L 332.307692 156.952615 
z
" style="fill:#808080;stroke:#808080;stroke-linejoin:miter;stroke-width:0.5;"/>
   </g>
   <g id="patch_44">
    <path clip-path="url(#p0262187b0c)" d="M 166.892308 130.072615 
L 181.366154 130.072615 
L 181.366154 115.598769 
L 166.892308 115.598769 
z
" style="fill:#808080;stroke:#808080;stroke-linejoin:miter;stroke-width:0.5;"/>
   </g>
   <g id="patch_45">
    <path clip-path="url(#p0262187b0c)" d="M 187.569231 109.395692 
L 202.043077 109.395692 
L 202.043077 94.921846 
L 187.569231 94.921846 
z
" style="fill:#808080;stroke:#808080;stroke-linejoin:miter;stroke-width:0.5;"/>
   </g>
   <g id="patch_46">
    <path clip-path="url(#p0262187b0c)" d="M 208.246154 109.395692 
L 222.72 109.395692 
L 222.72 94.921846 
L 208.246154 94.921846 
z
" style="fill:#808080;stroke:#808080;stroke-linejoin:miter;stroke-width:0.5;"/>
   </g>
   <g id="patch_47">
    <path clip-path="url(#p0262187b0c)" d="M 166.892308 171.426462 
L 181.366154 171.426462 
L 181.366154 156.952615 
L 166.892308 156.952615 
z
" style="fill:#808080;stroke:#808080;stroke-linejoin:miter;stroke-width:0.5;"/>
   </g>
   <g id="patch_48">
    <path clip-path="url(#p0262187b0c)" d="M 332.307692 233.457231 
L 346.781538 233.457231 
L 346.781538 218.983385 
L 332.307692 218.983385 
z
" style="fill:#808080;stroke:#808080;stroke-linejoin:miter;stroke-width:0.5;"/>
   </g>
   <g id="patch_49">
    <path clip-path="url(#p0262187b0c)" d="M 290.953846 130.072615 
L 305.427692 130.072615 
L 305.427692 115.598769 
L 290.953846 115.598769 
z
" style="fill:#808080;stroke:#808080;stroke-linejoin:miter;stroke-width:0.5;"/>
   </g>
   <g id="patch_50">
    <path clip-path="url(#p0262187b0c)" d="M 249.6 130.072615 
L 264.073846 130.072615 
L 264.073846 115.598769 
L 249.6 115.598769 
z
" style="fill:#808080;stroke:#808080;stroke-linejoin:miter;stroke-width:0.5;"/>
   </g>
   <g id="patch_51">
    <path clip-path="url(#p0262187b0c)" d="M 166.892308 212.780308 
L 181.366154 212.780308 
L 181.366154 198.306462 
L 166.892308 198.306462 
z
" style="fill:#808080;stroke:#808080;stroke-linejoin:miter;stroke-width:0.5;"/>
   </g>
   <g id="patch_52">
    <path clip-path="url(#p0262187b0c)" d="M 187.569231 233.457231 
L 202.043077 233.457231 
L 202.043077 218.983385 
L 187.569231 218.983385 
z
" style="fill:#808080;stroke:#808080;stroke-linejoin:miter;stroke-width:0.5;"/>
   </g>
   <g id="patch_53">
    <path clip-path="url(#p0262187b0c)" d="M 228.923077 130.072615 
L 243.396923 130.072615 
L 243.396923 115.598769 
L 228.923077 115.598769 
z
" style="fill:#808080;stroke:#808080;stroke-linejoin:miter;stroke-width:0.5;"/>
   </g>
   <g id="patch_54">
    <path clip-path="url(#p0262187b0c)" d="M 166.892308 192.103385 
L 181.366154 192.103385 
L 181.366154 177.629538 
L 166.892308 177.629538 
z
" style="fill:#808080;stroke:#808080;stroke-linejoin:miter;stroke-width:0.5;"/>
   </g>
   <g id="patch_55">
    <path clip-path="url(#p0262187b0c)" d="M 187.569231 254.134154 
L 202.043077 254.134154 
L 202.043077 239.660308 
L 187.569231 239.660308 
z
" style="fill:#808080;stroke:#808080;stroke-linejoin:miter;stroke-width:0.5;"/>
   </g>
   <g id="patch_56">
    <path clip-path="url(#p0262187b0c)" d="M 228.923077 109.395692 
L 243.396923 109.395692 
L 243.396923 94.921846 
L 228.923077 94.921846 
z
" style="fill:#808080;stroke:#808080;stroke-linejoin:miter;stroke-width:0.5;"/>
   </g>
   <g id="patch_57">
    <path clip-path="url(#p0262187b0c)" d="M 332.307692 150.749538 
L 346.781538 150.749538 
L 346.781538 136.275692 
L 332.307692 136.275692 
z
" style="fill:#808080;stroke:#808080;stroke-linejoin:miter;stroke-width:0.5;"/>
   </g>
   <g id="patch_58">
    <path clip-path="url(#p0262187b0c)" d="M 146.215385 130.072615 
L 160.689231 130.072615 
L 160.689231 115.598769 
L 146.215385 115.598769 
z
" style="fill:#808080;stroke:#808080;stroke-linejoin:miter;stroke-width:0.5;"/>
   </g>
   <g id="patch_59">
    <path clip-path="url(#p0262187b0c)" d="M 228.923077 88.718769 
L 243.396923 88.718769 
L 243.396923 74.244923 
L 228.923077 74.244923 
z
" style="fill:#808080;stroke:#808080;stroke-linejoin:miter;stroke-width:0.5;"/>
   </g>
   <g id="patch_60">
    <path clip-path="url(#p0262187b0c)" d="M 352.984615 212.780308 
L 367.458462 212.780308 
L 367.458462 198.306462 
L 352.984615 198.306462 
z
" style="fill:#808080;stroke:#808080;stroke-linejoin:miter;stroke-width:0.5;"/>
   </g>
   <g id="patch_61">
    <path clip-path="url(#p0262187b0c)" d="M 352.984615 233.457231 
L 367.458462 233.457231 
L 367.458462 218.983385 
L 352.984615 218.983385 
z
" style="fill:#808080;stroke:#808080;stroke-linejoin:miter;stroke-width:0.5;"/>
   </g>
   <g id="patch_62">
    <path clip-path="url(#p0262187b0c)" d="M 373.661538 212.780308 
L 388.135385 212.780308 
L 388.135385 198.306462 
L 373.661538 198.306462 
z
" style="fill:#808080;stroke:#808080;stroke-linejoin:miter;stroke-width:0.5;"/>
   </g>
   <g id="patch_63">
    <path clip-path="url(#p0262187b0c)" d="M 270.276923 274.811077 
L 284.750769 274.811077 
L 284.750769 260.337231 
L 270.276923 260.337231 
z
" style="fill:#808080;stroke:#808080;stroke-linejoin:miter;stroke-width:0.5;"/>
   </g>
   <g id="patch_64">
    <path clip-path="url(#p0262187b0c)" d="M 146.215385 212.780308 
L 160.689231 212.780308 
L 160.689231 198.306462 
L 146.215385 198.306462 
z
" style="fill:#808080;stroke:#808080;stroke-linejoin:miter;stroke-width:0.5;"/>
   </g>
   <g id="patch_65">
    <path clip-path="url(#p0262187b0c)" d="M 208.246154 88.718769 
L 222.72 88.718769 
L 222.72 74.244923 
L 208.246154 74.244923 
z
" style="fill:#808080;stroke:#808080;stroke-linejoin:miter;stroke-width:0.5;"/>
   </g>
   <g id="patch_66">
    <path clip-path="url(#p0262187b0c)" d="M 125.538462 130.072615 
L 140.012308 130.072615 
L 140.012308 115.598769 
L 125.538462 115.598769 
z
" style="fill:#808080;stroke:#808080;stroke-linejoin:miter;stroke-width:0.5;"/>
   </g>
   <g id="patch_67">
    <path clip-path="url(#p0262187b0c)" d="M 332.307692 130.072615 
L 346.781538 130.072615 
L 346.781538 115.598769 
L 332.307692 115.598769 
z
" style="fill:#808080;stroke:#808080;stroke-linejoin:miter;stroke-width:0.5;"/>
   </g>
   <g id="patch_68">
    <path clip-path="url(#p0262187b0c)" d="M 166.892308 254.134154 
L 181.366154 254.134154 
L 181.366154 239.660308 
L 166.892308 239.660308 
z
" style="fill:#808080;stroke:#808080;stroke-linejoin:miter;stroke-width:0.5;"/>
   </g>
   <g id="patch_69">
    <path clip-path="url(#p0262187b0c)" d="M 311.630769 130.072615 
L 326.104615 130.072615 
L 326.104615 115.598769 
L 311.630769 115.598769 
z
" style="fill:#808080;stroke:#808080;stroke-linejoin:miter;stroke-width:0.5;"/>
   </g>
   <g id="patch_70">
    <path clip-path="url(#p0262187b0c)" d="M 290.953846 274.811077 
L 305.427692 274.811077 
L 305.427692 260.337231 
L 290.953846 260.337231 
z
" style="fill:#808080;stroke:#808080;stroke-linejoin:miter;stroke-width:0.5;"/>
   </g>
   <g id="patch_71">
    <path clip-path="url(#p0262187b0c)" d="M 270.276923 295.488 
L 284.750769 295.488 
L 284.750769 281.014154 
L 270.276923 281.014154 
z
" style="fill:#808080;stroke:#808080;stroke-linejoin:miter;stroke-width:0.5;"/>
   </g>
   <g id="patch_72">
    <path clip-path="url(#p0262187b0c)" d="M 146.215385 254.134154 
L 160.689231 254.134154 
L 160.689231 239.660308 
L 146.215385 239.660308 
z
" style="fill:#808080;stroke:#808080;stroke-linejoin:miter;stroke-width:0.5;"/>
   </g>
   <g id="patch_73">
    <path clip-path="url(#p0262187b0c)" d="M 208.246154 68.041846 
L 222.72 68.041846 
L 222.72 53.568 
L 208.246154 53.568 
z
" style="fill:#808080;stroke:#808080;stroke-linejoin:miter;stroke-width:0.5;"/>
   </g>
   <g id="patch_74">
    <path clip-path="url(#p0262187b0c)" d="M 249.6 88.718769 
L 264.073846 88.718769 
L 264.073846 74.244923 
L 249.6 74.244923 
z
" style="fill:#808080;stroke:#808080;stroke-linejoin:miter;stroke-width:0.5;"/>
   </g>
   <g id="patch_75">
    <path clip-path="url(#p0262187b0c)" d="M 228.923077 68.041846 
L 243.396923 68.041846 
L 243.396923 53.568 
L 228.923077 53.568 
z
" style="fill:#808080;stroke:#808080;stroke-linejoin:miter;stroke-width:0.5;"/>
   </g>
   <g id="patch_76">
    <path clip-path="url(#p0262187b0c)" d="M 104.861538 130.072615 
L 119.335385 130.072615 
L 119.335385 115.598769 
L 104.861538 115.598769 
z
" style="fill:#808080;stroke:#808080;stroke-linejoin:miter;stroke-width:0.5;"/>
   </g>
   <g id="patch_77">
    <path clip-path="url(#p0262187b0c)" d="M 125.538462 150.749538 
L 140.012308 150.749538 
L 140.012308 136.275692 
L 125.538462 136.275692 
z
" style="fill:#808080;stroke:#808080;stroke-linejoin:miter;stroke-width:0.5;"/>
   </g>
   <g id="patch_78">
    <path clip-path="url(#p0262187b0c)" d="M 352.984615 254.134154 
L 367.458462 254.134154 
L 367.458462 239.660308 
L 352.984615 239.660308 
z
" style="fill:#808080;stroke:#808080;stroke-linejoin:miter;stroke-width:0.5;"/>
   </g>
   <g id="patch_79">
    <path clip-path="url(#p0262187b0c)" d="M 84.184615 130.072615 
L 98.658462 130.072615 
L 98.658462 115.598769 
L 84.184615 115.598769 
z
" style="fill:#808080;stroke:#808080;stroke-linejoin:miter;stroke-width:0.5;"/>
   </g>
   <g id="patch_80">
    <path clip-path="url(#p0262187b0c)" d="M 373.661538 254.134154 
L 388.135385 254.134154 
L 388.135385 239.660308 
L 373.661538 239.660308 
z
" style="fill:#808080;stroke:#808080;stroke-linejoin:miter;stroke-width:0.5;"/>
   </g>
   <g id="patch_81">
    <path clip-path="url(#p0262187b0c)" d="M 373.661538 274.811077 
L 388.135385 274.811077 
L 388.135385 260.337231 
L 373.661538 260.337231 
z
" style="fill:#808080;stroke:#808080;stroke-linejoin:miter;stroke-width:0.5;"/>
   </g>
   <g id="patch_82">
    <path clip-path="url(#p0262187b0c)" d="M 249.6 171.426462 
L 264.073846 171.426462 
L 264.073846 156.952615 
L 249.6 156.952615 
z
" style="fill:#008000;stroke:#008000;stroke-linejoin:miter;stroke-width:0.5;"/>
   </g>
  </g>
 </g>
 <defs>
  <clipPath id="p0262187b0c">
   <rect height="266.112" width="334.345846" x="68.987077" y="41.472"/>
  </clipPath>
 </defs>
</svg>
