<?xml version="1.0" encoding="utf-8" standalone="no"?>
<!DOCTYPE svg PUBLIC "-//W3C//DTD SVG 1.1//EN"
  "http://www.w3.org/Graphics/SVG/1.1/DTD/svg11.dtd">
<!-- Created with matplotlib (https://matplotlib.org/) -->
<svg height="345.6pt" version="1.1" viewBox="0 0 460.8 345.6" width="460.8pt" xmlns="http://www.w3.org/2000/svg" xmlns:xlink="http://www.w3.org/1999/xlink">
 <defs>
  <style type="text/css">
*{stroke-linecap:butt;stroke-linejoin:round;}
  </style>
 </defs>
 <g id="figure_1">
  <g id="patch_1">
   <path d="M 0 345.6 
L 460.8 345.6 
L 460.8 0 
L 0 0 
z
" style="fill:#ffffff;"/>
  </g>
  <g id="axes_1">
   <g id="patch_2">
    <path clip-path="url(#pc6e01988f8)" d="M 241.180431 186.242339 
L 264.60911 186.242339 
L 264.60911 162.813661 
L 241.180431 162.813661 
z
" style="fill:#808080;stroke:#808080;stroke-linejoin:miter;stroke-width:0.5;"/>
   </g>
   <g id="patch_3">
    <path clip-path="url(#pc6e01988f8)" d="M 207.71089 186.242339 
L 231.139569 186.242339 
L 231.139569 162.813661 
L 207.71089 162.813661 
z
" style="fill:#808080;stroke:#808080;stroke-linejoin:miter;stroke-width:0.5;"/>
   </g>
   <g id="patch_4">
    <path clip-path="url(#pc6e01988f8)" d="M 241.180431 152.772799 
L 264.60911 152.772799 
L 264.60911 129.34412 
L 241.180431 129.34412 
z
" style="fill:#808080;stroke:#808080;stroke-linejoin:miter;stroke-width:0.5;"/>
   </g>
   <g id="patch_5">
    <path clip-path="url(#pc6e01988f8)" d="M 241.180431 219.71188 
L 264.60911 219.71188 
L 264.60911 196.283201 
L 241.180431 196.283201 
z
" style="fill:#808080;stroke:#808080;stroke-linejoin:miter;stroke-width:0.5;"/>
   </g>
   <g id="patch_6">
    <path clip-path="url(#pc6e01988f8)" d="M 274.649972 152.772799 
L 298.07865 152.772799 
L 298.07865 129.34412 
L 274.649972 129.34412 
z
" style="fill:#808080;stroke:#808080;stroke-linejoin:miter;stroke-width:0.5;"/>
   </g>
   <g id="patch_7">
    <path clip-path="url(#pc6e01988f8)" d="M 207.71089 152.772799 
L 231.139569 152.772799 
L 231.139569 129.34412 
L 207.71089 129.34412 
z
" style="fill:#808080;stroke:#808080;stroke-linejoin:miter;stroke-width:0.5;"/>
   </g>
   <g id="patch_8">
    <path clip-path="url(#pc6e01988f8)" d="M 241.180431 119.303258 
L 264.60911 119.303258 
L 264.60911 95.874579 
L 241.180431 95.874579 
z
" style="fill:#808080;stroke:#808080;stroke-linejoin:miter;stroke-width:0.5;"/>
   </g>
   <g id="patch_9">
    <path clip-path="url(#pc6e01988f8)" d="M 174.24135 186.242339 
L 197.670028 186.242339 
L 197.670028 162.813661 
L 174.24135 162.813661 
z
" style="fill:#808080;stroke:#808080;stroke-linejoin:miter;stroke-width:0.5;"/>
   </g>
   <g id="patch_10">
    <path clip-path="url(#pc6e01988f8)" d="M 207.71089 219.71188 
L 231.139569 219.71188 
L 231.139569 196.283201 
L 207.71089 196.283201 
z
" style="fill:#808080;stroke:#808080;stroke-linejoin:miter;stroke-width:0.5;"/>
   </g>
   <g id="patch_11">
    <path clip-path="url(#pc6e01988f8)" d="M 140.771809 186.242339 
L 164.200487 186.242339 
L 164.200487 162.813661 
L 140.771809 162.813661 
z
" style="fill:#808080;stroke:#808080;stroke-linejoin:miter;stroke-width:0.5;"/>
   </g>
   <g id="patch_12">
    <path clip-path="url(#pc6e01988f8)" d="M 174.24135 152.772799 
L 197.670028 152.772799 
L 197.670028 129.34412 
L 174.24135 129.34412 
z
" style="fill:#808080;stroke:#808080;stroke-linejoin:miter;stroke-width:0.5;"/>
   </g>
   <g id="patch_13">
    <path clip-path="url(#pc6e01988f8)" d="M 174.24135 219.71188 
L 197.670028 219.71188 
L 197.670028 196.283201 
L 174.24135 196.283201 
z
" style="fill:#808080;stroke:#808080;stroke-linejoin:miter;stroke-width:0.5;"/>
   </g>
   <g id="patch_14">
    <path clip-path="url(#pc6e01988f8)" d="M 107.302268 186.242339 
L 130.730947 186.242339 
L 130.730947 162.813661 
L 107.302268 162.813661 
z
" style="fill:#808080;stroke:#808080;stroke-linejoin:miter;stroke-width:0.5;"/>
   </g>
   <g id="patch_15">
    <path clip-path="url(#pc6e01988f8)" d="M 140.771809 152.772799 
L 164.200487 152.772799 
L 164.200487 129.34412 
L 140.771809 129.34412 
z
" style="fill:#808080;stroke:#808080;stroke-linejoin:miter;stroke-width:0.5;"/>
   </g>
   <g id="patch_16">
    <path clip-path="url(#pc6e01988f8)" d="M 174.24135 253.181421 
L 197.670028 253.181421 
L 197.670028 229.752742 
L 174.24135 229.752742 
z
" style="fill:#808080;stroke:#808080;stroke-linejoin:miter;stroke-width:0.5;"/>
   </g>
   <g id="patch_17">
    <path clip-path="url(#pc6e01988f8)" d="M 274.649972 119.303258 
L 298.07865 119.303258 
L 298.07865 95.874579 
L 274.649972 95.874579 
z
" style="fill:#808080;stroke:#808080;stroke-linejoin:miter;stroke-width:0.5;"/>
   </g>
   <g id="patch_18">
    <path clip-path="url(#pc6e01988f8)" d="M 207.71089 119.303258 
L 231.139569 119.303258 
L 231.139569 95.874579 
L 207.71089 95.874579 
z
" style="fill:#808080;stroke:#808080;stroke-linejoin:miter;stroke-width:0.5;"/>
   </g>
   <g id="patch_19">
    <path clip-path="url(#pc6e01988f8)" d="M 241.180431 85.833717 
L 264.60911 85.833717 
L 264.60911 62.405038 
L 241.180431 62.405038 
z
" style="fill:#808080;stroke:#808080;stroke-linejoin:miter;stroke-width:0.5;"/>
   </g>
   <g id="patch_20">
    <path clip-path="url(#pc6e01988f8)" d="M 174.24135 119.303258 
L 197.670028 119.303258 
L 197.670028 95.874579 
L 174.24135 95.874579 
z
" style="fill:#808080;stroke:#808080;stroke-linejoin:miter;stroke-width:0.5;"/>
   </g>
   <g id="patch_21">
    <path clip-path="url(#pc6e01988f8)" d="M 207.71089 85.833717 
L 231.139569 85.833717 
L 231.139569 62.405038 
L 207.71089 62.405038 
z
" style="fill:#808080;stroke:#808080;stroke-linejoin:miter;stroke-width:0.5;"/>
   </g>
   <g id="patch_22">
    <path clip-path="url(#pc6e01988f8)" d="M 308.119513 119.303258 
L 331.548191 119.303258 
L 331.548191 95.874579 
L 308.119513 95.874579 
z
" style="fill:#808080;stroke:#808080;stroke-linejoin:miter;stroke-width:0.5;"/>
   </g>
   <g id="patch_23">
    <path clip-path="url(#pc6e01988f8)" d="M 274.649972 85.833717 
L 298.07865 85.833717 
L 298.07865 62.405038 
L 274.649972 62.405038 
z
" style="fill:#808080;stroke:#808080;stroke-linejoin:miter;stroke-width:0.5;"/>
   </g>
   <g id="patch_24">
    <path clip-path="url(#pc6e01988f8)" d="M 207.71089 253.181421 
L 231.139569 253.181421 
L 231.139569 229.752742 
L 207.71089 229.752742 
z
" style="fill:#808080;stroke:#808080;stroke-linejoin:miter;stroke-width:0.5;"/>
   </g>
   <g id="patch_25">
    <path clip-path="url(#pc6e01988f8)" d="M 140.771809 253.181421 
L 164.200487 253.181421 
L 164.200487 229.752742 
L 140.771809 229.752742 
z
" style="fill:#808080;stroke:#808080;stroke-linejoin:miter;stroke-width:0.5;"/>
   </g>
   <g id="patch_26">
    <path clip-path="url(#pc6e01988f8)" d="M 174.24135 286.650962 
L 197.670028 286.650962 
L 197.670028 263.222283 
L 174.24135 263.222283 
z
" style="fill:#808080;stroke:#808080;stroke-linejoin:miter;stroke-width:0.5;"/>
   </g>
   <g id="patch_27">
    <path clip-path="url(#pc6e01988f8)" d="M 174.24135 85.833717 
L 197.670028 85.833717 
L 197.670028 62.405038 
L 174.24135 62.405038 
z
" style="fill:#808080;stroke:#808080;stroke-linejoin:miter;stroke-width:0.5;"/>
   </g>
   <g id="patch_28">
    <path clip-path="url(#pc6e01988f8)" d="M 107.302268 253.181421 
L 130.730947 253.181421 
L 130.730947 229.752742 
L 107.302268 229.752742 
z
" style="fill:#808080;stroke:#808080;stroke-linejoin:miter;stroke-width:0.5;"/>
   </g>
   <g id="patch_29">
    <path clip-path="url(#pc6e01988f8)" d="M 140.771809 119.303258 
L 164.200487 119.303258 
L 164.200487 95.874579 
L 140.771809 95.874579 
z
" style="fill:#808080;stroke:#808080;stroke-linejoin:miter;stroke-width:0.5;"/>
   </g>
   <g id="patch_30">
    <path clip-path="url(#pc6e01988f8)" d="M 107.302268 119.303258 
L 130.730947 119.303258 
L 130.730947 95.874579 
L 107.302268 95.874579 
z
" style="fill:#808080;stroke:#808080;stroke-linejoin:miter;stroke-width:0.5;"/>
   </g>
   <g id="patch_31">
    <path clip-path="url(#pc6e01988f8)" d="M 308.119513 85.833717 
L 331.548191 85.833717 
L 331.548191 62.405038 
L 308.119513 62.405038 
z
" style="fill:#808080;stroke:#808080;stroke-linejoin:miter;stroke-width:0.5;"/>
   </g>
   <g id="patch_32">
    <path clip-path="url(#pc6e01988f8)" d="M 341.589053 85.833717 
L 365.017732 85.833717 
L 365.017732 62.405038 
L 341.589053 62.405038 
z
" style="fill:#808080;stroke:#808080;stroke-linejoin:miter;stroke-width:0.5;"/>
   </g>
   <g id="patch_33">
    <path clip-path="url(#pc6e01988f8)" d="M 107.302268 152.772799 
L 130.730947 152.772799 
L 130.730947 129.34412 
L 107.302268 129.34412 
z
" style="fill:#808080;stroke:#808080;stroke-linejoin:miter;stroke-width:0.5;"/>
   </g>
   <g id="patch_34">
    <path clip-path="url(#pc6e01988f8)" d="M 107.302268 219.71188 
L 130.730947 219.71188 
L 130.730947 196.283201 
L 107.302268 196.283201 
z
" style="fill:#808080;stroke:#808080;stroke-linejoin:miter;stroke-width:0.5;"/>
   </g>
   <g id="patch_35">
    <path clip-path="url(#pc6e01988f8)" d="M 73.832727 119.303258 
L 97.261406 119.303258 
L 97.261406 95.874579 
L 73.832727 95.874579 
z
" style="fill:#808080;stroke:#808080;stroke-linejoin:miter;stroke-width:0.5;"/>
   </g>
   <g id="patch_36">
    <path clip-path="url(#pc6e01988f8)" d="M 107.302268 85.833717 
L 130.730947 85.833717 
L 130.730947 62.405038 
L 107.302268 62.405038 
z
" style="fill:#808080;stroke:#808080;stroke-linejoin:miter;stroke-width:0.5;"/>
   </g>
   <g id="patch_37">
    <path clip-path="url(#pc6e01988f8)" d="M 375.058594 85.833717 
L 398.487273 85.833717 
L 398.487273 62.405038 
L 375.058594 62.405038 
z
" style="fill:#808080;stroke:#808080;stroke-linejoin:miter;stroke-width:0.5;"/>
   </g>
   <g id="patch_38">
    <path clip-path="url(#pc6e01988f8)" d="M 107.302268 286.650962 
L 130.730947 286.650962 
L 130.730947 263.222283 
L 107.302268 263.222283 
z
" style="fill:#808080;stroke:#808080;stroke-linejoin:miter;stroke-width:0.5;"/>
   </g>
   <g id="patch_39">
    <path clip-path="url(#pc6e01988f8)" d="M 241.180431 253.181421 
L 264.60911 253.181421 
L 264.60911 229.752742 
L 241.180431 229.752742 
z
" style="fill:#808080;stroke:#808080;stroke-linejoin:miter;stroke-width:0.5;"/>
   </g>
   <g id="patch_40">
    <path clip-path="url(#pc6e01988f8)" d="M 375.058594 119.303258 
L 398.487273 119.303258 
L 398.487273 95.874579 
L 375.058594 95.874579 
z
" style="fill:#808080;stroke:#808080;stroke-linejoin:miter;stroke-width:0.5;"/>
   </g>
   <g id="patch_41">
    <path clip-path="url(#pc6e01988f8)" d="M 375.058594 152.772799 
L 398.487273 152.772799 
L 398.487273 129.34412 
L 375.058594 129.34412 
z
" style="fill:#808080;stroke:#808080;stroke-linejoin:miter;stroke-width:0.5;"/>
   </g>
   <g id="patch_42">
    <path clip-path="url(#pc6e01988f8)" d="M 241.180431 186.242339 
L 264.60911 186.242339 
L 264.60911 162.813661 
L 241.180431 162.813661 
z
" style="fill:#008000;stroke:#008000;stroke-linejoin:miter;stroke-width:0.5;"/>
   </g>
  </g>
 </g>
 <defs>
  <clipPath id="pc6e01988f8">
   <rect height="246.670515" width="357.12" x="57.6" y="51.192742"/>
  </clipPath>
 </defs>
</svg>
