<?xml version="1.0" encoding="utf-8" standalone="no"?>
<!DOCTYPE svg PUBLIC "-//W3C//DTD SVG 1.1//EN"
  "http://www.w3.org/Graphics/SVG/1.1/DTD/svg11.dtd">
<!-- Created with matplotlib (https://matplotlib.org/) -->
<svg height="345.6pt" version="1.1" viewBox="0 0 460.8 345.6" width="460.8pt" xmlns="http://www.w3.org/2000/svg" xmlns:xlink="http://www.w3.org/1999/xlink">
 <defs>
  <style type="text/css">
*{stroke-linecap:butt;stroke-linejoin:round;}
  </style>
 </defs>
 <g id="figure_1">
  <g id="patch_1">
   <path d="M 0 345.6 
L 460.8 345.6 
L 460.8 0 
L 0 0 
z
" style="fill:#ffffff;"/>
  </g>
  <g id="axes_1">
   <g id="patch_2">
    <path clip-path="url(#p816cd74b63)" d="M 239.901031 195.727175 
L 257.359175 195.727175 
L 257.359175 178.269031 
L 239.901031 178.269031 
z
" style="fill:#808080;stroke:#808080;stroke-linejoin:miter;stroke-width:0.5;"/>
   </g>
   <g id="patch_3">
    <path clip-path="url(#p816cd74b63)" d="M 214.960825 195.727175 
L 232.418969 195.727175 
L 232.418969 178.269031 
L 214.960825 178.269031 
z
" style="fill:#808080;stroke:#808080;stroke-linejoin:miter;stroke-width:0.5;"/>
   </g>
   <g id="patch_4">
    <path clip-path="url(#p816cd74b63)" d="M 239.901031 170.786969 
L 257.359175 170.786969 
L 257.359175 153.328825 
L 239.901031 153.328825 
z
" style="fill:#808080;stroke:#808080;stroke-linejoin:miter;stroke-width:0.5;"/>
   </g>
   <g id="patch_5">
    <path clip-path="url(#p816cd74b63)" d="M 239.901031 220.667381 
L 257.359175 220.667381 
L 257.359175 203.209237 
L 239.901031 203.209237 
z
" style="fill:#808080;stroke:#808080;stroke-linejoin:miter;stroke-width:0.5;"/>
   </g>
   <g id="patch_6">
    <path clip-path="url(#p816cd74b63)" d="M 264.841237 220.667381 
L 282.299381 220.667381 
L 282.299381 203.209237 
L 264.841237 203.209237 
z
" style="fill:#808080;stroke:#808080;stroke-linejoin:miter;stroke-width:0.5;"/>
   </g>
   <g id="patch_7">
    <path clip-path="url(#p816cd74b63)" d="M 214.960825 220.667381 
L 232.418969 220.667381 
L 232.418969 203.209237 
L 214.960825 203.209237 
z
" style="fill:#808080;stroke:#808080;stroke-linejoin:miter;stroke-width:0.5;"/>
   </g>
   <g id="patch_8">
    <path clip-path="url(#p816cd74b63)" d="M 239.901031 245.607588 
L 257.359175 245.607588 
L 257.359175 228.149443 
L 239.901031 228.149443 
z
" style="fill:#808080;stroke:#808080;stroke-linejoin:miter;stroke-width:0.5;"/>
   </g>
   <g id="patch_9">
    <path clip-path="url(#p816cd74b63)" d="M 264.841237 170.786969 
L 282.299381 170.786969 
L 282.299381 153.328825 
L 264.841237 153.328825 
z
" style="fill:#808080;stroke:#808080;stroke-linejoin:miter;stroke-width:0.5;"/>
   </g>
   <g id="patch_10">
    <path clip-path="url(#p816cd74b63)" d="M 214.960825 170.786969 
L 232.418969 170.786969 
L 232.418969 153.328825 
L 214.960825 153.328825 
z
" style="fill:#808080;stroke:#808080;stroke-linejoin:miter;stroke-width:0.5;"/>
   </g>
   <g id="patch_11">
    <path clip-path="url(#p816cd74b63)" d="M 239.901031 145.846763 
L 257.359175 145.846763 
L 257.359175 128.388619 
L 239.901031 128.388619 
z
" style="fill:#808080;stroke:#808080;stroke-linejoin:miter;stroke-width:0.5;"/>
   </g>
   <g id="patch_12">
    <path clip-path="url(#p816cd74b63)" d="M 214.960825 245.607588 
L 232.418969 245.607588 
L 232.418969 228.149443 
L 214.960825 228.149443 
z
" style="fill:#808080;stroke:#808080;stroke-linejoin:miter;stroke-width:0.5;"/>
   </g>
   <g id="patch_13">
    <path clip-path="url(#p816cd74b63)" d="M 190.020619 170.786969 
L 207.478763 170.786969 
L 207.478763 153.328825 
L 190.020619 153.328825 
z
" style="fill:#808080;stroke:#808080;stroke-linejoin:miter;stroke-width:0.5;"/>
   </g>
   <g id="patch_14">
    <path clip-path="url(#p816cd74b63)" d="M 214.960825 145.846763 
L 232.418969 145.846763 
L 232.418969 128.388619 
L 214.960825 128.388619 
z
" style="fill:#808080;stroke:#808080;stroke-linejoin:miter;stroke-width:0.5;"/>
   </g>
   <g id="patch_15">
    <path clip-path="url(#p816cd74b63)" d="M 264.841237 145.846763 
L 282.299381 145.846763 
L 282.299381 128.388619 
L 264.841237 128.388619 
z
" style="fill:#808080;stroke:#808080;stroke-linejoin:miter;stroke-width:0.5;"/>
   </g>
   <g id="patch_16">
    <path clip-path="url(#p816cd74b63)" d="M 239.901031 120.906557 
L 257.359175 120.906557 
L 257.359175 103.448412 
L 239.901031 103.448412 
z
" style="fill:#808080;stroke:#808080;stroke-linejoin:miter;stroke-width:0.5;"/>
   </g>
   <g id="patch_17">
    <path clip-path="url(#p816cd74b63)" d="M 289.781443 145.846763 
L 307.239588 145.846763 
L 307.239588 128.388619 
L 289.781443 128.388619 
z
" style="fill:#808080;stroke:#808080;stroke-linejoin:miter;stroke-width:0.5;"/>
   </g>
   <g id="patch_18">
    <path clip-path="url(#p816cd74b63)" d="M 264.841237 120.906557 
L 282.299381 120.906557 
L 282.299381 103.448412 
L 264.841237 103.448412 
z
" style="fill:#808080;stroke:#808080;stroke-linejoin:miter;stroke-width:0.5;"/>
   </g>
   <g id="patch_19">
    <path clip-path="url(#p816cd74b63)" d="M 190.020619 245.607588 
L 207.478763 245.607588 
L 207.478763 228.149443 
L 190.020619 228.149443 
z
" style="fill:#808080;stroke:#808080;stroke-linejoin:miter;stroke-width:0.5;"/>
   </g>
   <g id="patch_20">
    <path clip-path="url(#p816cd74b63)" d="M 214.960825 270.547794 
L 232.418969 270.547794 
L 232.418969 253.089649 
L 214.960825 253.089649 
z
" style="fill:#808080;stroke:#808080;stroke-linejoin:miter;stroke-width:0.5;"/>
   </g>
   <g id="patch_21">
    <path clip-path="url(#p816cd74b63)" d="M 289.781443 220.667381 
L 307.239588 220.667381 
L 307.239588 203.209237 
L 289.781443 203.209237 
z
" style="fill:#808080;stroke:#808080;stroke-linejoin:miter;stroke-width:0.5;"/>
   </g>
   <g id="patch_22">
    <path clip-path="url(#p816cd74b63)" d="M 264.841237 245.607588 
L 282.299381 245.607588 
L 282.299381 228.149443 
L 264.841237 228.149443 
z
" style="fill:#808080;stroke:#808080;stroke-linejoin:miter;stroke-width:0.5;"/>
   </g>
   <g id="patch_23">
    <path clip-path="url(#p816cd74b63)" d="M 264.841237 270.547794 
L 282.299381 270.547794 
L 282.299381 253.089649 
L 264.841237 253.089649 
z
" style="fill:#808080;stroke:#808080;stroke-linejoin:miter;stroke-width:0.5;"/>
   </g>
   <g id="patch_24">
    <path clip-path="url(#p816cd74b63)" d="M 214.960825 295.488 
L 232.418969 295.488 
L 232.418969 278.029856 
L 214.960825 278.029856 
z
" style="fill:#808080;stroke:#808080;stroke-linejoin:miter;stroke-width:0.5;"/>
   </g>
   <g id="patch_25">
    <path clip-path="url(#p816cd74b63)" d="M 190.020619 145.846763 
L 207.478763 145.846763 
L 207.478763 128.388619 
L 190.020619 128.388619 
z
" style="fill:#808080;stroke:#808080;stroke-linejoin:miter;stroke-width:0.5;"/>
   </g>
   <g id="patch_26">
    <path clip-path="url(#p816cd74b63)" d="M 214.960825 120.906557 
L 232.418969 120.906557 
L 232.418969 103.448412 
L 214.960825 103.448412 
z
" style="fill:#808080;stroke:#808080;stroke-linejoin:miter;stroke-width:0.5;"/>
   </g>
   <g id="patch_27">
    <path clip-path="url(#p816cd74b63)" d="M 289.781443 195.727175 
L 307.239588 195.727175 
L 307.239588 178.269031 
L 289.781443 178.269031 
z
" style="fill:#808080;stroke:#808080;stroke-linejoin:miter;stroke-width:0.5;"/>
   </g>
   <g id="patch_28">
    <path clip-path="url(#p816cd74b63)" d="M 314.721649 195.727175 
L 332.179794 195.727175 
L 332.179794 178.269031 
L 314.721649 178.269031 
z
" style="fill:#808080;stroke:#808080;stroke-linejoin:miter;stroke-width:0.5;"/>
   </g>
   <g id="patch_29">
    <path clip-path="url(#p816cd74b63)" d="M 289.781443 170.786969 
L 307.239588 170.786969 
L 307.239588 153.328825 
L 289.781443 153.328825 
z
" style="fill:#808080;stroke:#808080;stroke-linejoin:miter;stroke-width:0.5;"/>
   </g>
   <g id="patch_30">
    <path clip-path="url(#p816cd74b63)" d="M 239.901031 295.488 
L 257.359175 295.488 
L 257.359175 278.029856 
L 239.901031 278.029856 
z
" style="fill:#808080;stroke:#808080;stroke-linejoin:miter;stroke-width:0.5;"/>
   </g>
   <g id="patch_31">
    <path clip-path="url(#p816cd74b63)" d="M 165.080412 245.607588 
L 182.538557 245.607588 
L 182.538557 228.149443 
L 165.080412 228.149443 
z
" style="fill:#808080;stroke:#808080;stroke-linejoin:miter;stroke-width:0.5;"/>
   </g>
   <g id="patch_32">
    <path clip-path="url(#p816cd74b63)" d="M 165.080412 145.846763 
L 182.538557 145.846763 
L 182.538557 128.388619 
L 165.080412 128.388619 
z
" style="fill:#808080;stroke:#808080;stroke-linejoin:miter;stroke-width:0.5;"/>
   </g>
   <g id="patch_33">
    <path clip-path="url(#p816cd74b63)" d="M 190.020619 120.906557 
L 207.478763 120.906557 
L 207.478763 103.448412 
L 190.020619 103.448412 
z
" style="fill:#808080;stroke:#808080;stroke-linejoin:miter;stroke-width:0.5;"/>
   </g>
   <g id="patch_34">
    <path clip-path="url(#p816cd74b63)" d="M 289.781443 270.547794 
L 307.239588 270.547794 
L 307.239588 253.089649 
L 289.781443 253.089649 
z
" style="fill:#808080;stroke:#808080;stroke-linejoin:miter;stroke-width:0.5;"/>
   </g>
   <g id="patch_35">
    <path clip-path="url(#p816cd74b63)" d="M 264.841237 295.488 
L 282.299381 295.488 
L 282.299381 278.029856 
L 264.841237 278.029856 
z
" style="fill:#808080;stroke:#808080;stroke-linejoin:miter;stroke-width:0.5;"/>
   </g>
   <g id="patch_36">
    <path clip-path="url(#p816cd74b63)" d="M 314.721649 145.846763 
L 332.179794 145.846763 
L 332.179794 128.388619 
L 314.721649 128.388619 
z
" style="fill:#808080;stroke:#808080;stroke-linejoin:miter;stroke-width:0.5;"/>
   </g>
   <g id="patch_37">
    <path clip-path="url(#p816cd74b63)" d="M 289.781443 120.906557 
L 307.239588 120.906557 
L 307.239588 103.448412 
L 289.781443 103.448412 
z
" style="fill:#808080;stroke:#808080;stroke-linejoin:miter;stroke-width:0.5;"/>
   </g>
   <g id="patch_38">
    <path clip-path="url(#p816cd74b63)" d="M 214.960825 95.966351 
L 232.418969 95.966351 
L 232.418969 78.508206 
L 214.960825 78.508206 
z
" style="fill:#808080;stroke:#808080;stroke-linejoin:miter;stroke-width:0.5;"/>
   </g>
   <g id="patch_39">
    <path clip-path="url(#p816cd74b63)" d="M 165.080412 120.906557 
L 182.538557 120.906557 
L 182.538557 103.448412 
L 165.080412 103.448412 
z
" style="fill:#808080;stroke:#808080;stroke-linejoin:miter;stroke-width:0.5;"/>
   </g>
   <g id="patch_40">
    <path clip-path="url(#p816cd74b63)" d="M 264.841237 95.966351 
L 282.299381 95.966351 
L 282.299381 78.508206 
L 264.841237 78.508206 
z
" style="fill:#808080;stroke:#808080;stroke-linejoin:miter;stroke-width:0.5;"/>
   </g>
   <g id="patch_41">
    <path clip-path="url(#p816cd74b63)" d="M 289.781443 295.488 
L 307.239588 295.488 
L 307.239588 278.029856 
L 289.781443 278.029856 
z
" style="fill:#808080;stroke:#808080;stroke-linejoin:miter;stroke-width:0.5;"/>
   </g>
   <g id="patch_42">
    <path clip-path="url(#p816cd74b63)" d="M 140.140206 120.906557 
L 157.598351 120.906557 
L 157.598351 103.448412 
L 140.140206 103.448412 
z
" style="fill:#808080;stroke:#808080;stroke-linejoin:miter;stroke-width:0.5;"/>
   </g>
   <g id="patch_43">
    <path clip-path="url(#p816cd74b63)" d="M 165.080412 95.966351 
L 182.538557 95.966351 
L 182.538557 78.508206 
L 165.080412 78.508206 
z
" style="fill:#808080;stroke:#808080;stroke-linejoin:miter;stroke-width:0.5;"/>
   </g>
   <g id="patch_44">
    <path clip-path="url(#p816cd74b63)" d="M 239.901031 95.966351 
L 257.359175 95.966351 
L 257.359175 78.508206 
L 239.901031 78.508206 
z
" style="fill:#808080;stroke:#808080;stroke-linejoin:miter;stroke-width:0.5;"/>
   </g>
   <g id="patch_45">
    <path clip-path="url(#p816cd74b63)" d="M 190.020619 95.966351 
L 207.478763 95.966351 
L 207.478763 78.508206 
L 190.020619 78.508206 
z
" style="fill:#808080;stroke:#808080;stroke-linejoin:miter;stroke-width:0.5;"/>
   </g>
   <g id="patch_46">
    <path clip-path="url(#p816cd74b63)" d="M 140.140206 245.607588 
L 157.598351 245.607588 
L 157.598351 228.149443 
L 140.140206 228.149443 
z
" style="fill:#808080;stroke:#808080;stroke-linejoin:miter;stroke-width:0.5;"/>
   </g>
   <g id="patch_47">
    <path clip-path="url(#p816cd74b63)" d="M 165.080412 220.667381 
L 182.538557 220.667381 
L 182.538557 203.209237 
L 165.080412 203.209237 
z
" style="fill:#808080;stroke:#808080;stroke-linejoin:miter;stroke-width:0.5;"/>
   </g>
   <g id="patch_48">
    <path clip-path="url(#p816cd74b63)" d="M 165.080412 270.547794 
L 182.538557 270.547794 
L 182.538557 253.089649 
L 165.080412 253.089649 
z
" style="fill:#808080;stroke:#808080;stroke-linejoin:miter;stroke-width:0.5;"/>
   </g>
   <g id="patch_49">
    <path clip-path="url(#p816cd74b63)" d="M 239.901031 71.026144 
L 257.359175 71.026144 
L 257.359175 53.568 
L 239.901031 53.568 
z
" style="fill:#808080;stroke:#808080;stroke-linejoin:miter;stroke-width:0.5;"/>
   </g>
   <g id="patch_50">
    <path clip-path="url(#p816cd74b63)" d="M 140.140206 220.667381 
L 157.598351 220.667381 
L 157.598351 203.209237 
L 140.140206 203.209237 
z
" style="fill:#808080;stroke:#808080;stroke-linejoin:miter;stroke-width:0.5;"/>
   </g>
   <g id="patch_51">
    <path clip-path="url(#p816cd74b63)" d="M 314.721649 295.488 
L 332.179794 295.488 
L 332.179794 278.029856 
L 314.721649 278.029856 
z
" style="fill:#808080;stroke:#808080;stroke-linejoin:miter;stroke-width:0.5;"/>
   </g>
   <g id="patch_52">
    <path clip-path="url(#p816cd74b63)" d="M 239.901031 195.727175 
L 257.359175 195.727175 
L 257.359175 178.269031 
L 239.901031 178.269031 
z
" style="fill:#008000;stroke:#008000;stroke-linejoin:miter;stroke-width:0.5;"/>
   </g>
  </g>
 </g>
 <defs>
  <clipPath id="p816cd74b63">
   <rect height="266.112" width="211.243546" x="130.538227" y="41.472"/>
  </clipPath>
 </defs>
</svg>
