<?xml version="1.0" encoding="utf-8" standalone="no"?>
<!DOCTYPE svg PUBLIC "-//W3C//DTD SVG 1.1//EN"
  "http://www.w3.org/Graphics/SVG/1.1/DTD/svg11.dtd">
<!-- Created with matplotlib (https://matplotlib.org/) -->
<svg height="345.6pt" version="1.1" viewBox="0 0 460.8 345.6" width="460.8pt" xmlns="http://www.w3.org/2000/svg" xmlns:xlink="http://www.w3.org/1999/xlink">
 <defs>
  <style type="text/css">
*{stroke-linecap:butt;stroke-linejoin:round;}
  </style>
 </defs>
 <g id="figure_1">
  <g id="patch_1">
   <path d="M 0 345.6 
L 460.8 345.6 
L 460.8 0 
L 0 0 
z
" style="fill:#ffffff;"/>
  </g>
  <g id="axes_1">
   <g id="patch_2">
    <path clip-path="url(#p1cbe2f3b37)" d="M 295.353191 192.543319 
L 331.38383 192.543319 
L 331.38383 156.512681 
L 295.353191 156.512681 
z
" style="fill:#808080;stroke:#808080;stroke-linejoin:miter;stroke-width:0.5;"/>
   </g>
   <g id="patch_3">
    <path clip-path="url(#p1cbe2f3b37)" d="M 243.880851 192.543319 
L 279.911489 192.543319 
L 279.911489 156.512681 
L 243.880851 156.512681 
z
" style="fill:#808080;stroke:#808080;stroke-linejoin:miter;stroke-width:0.5;"/>
   </g>
   <g id="patch_4">
    <path clip-path="url(#p1cbe2f3b37)" d="M 295.353191 141.070979 
L 331.38383 141.070979 
L 331.38383 105.04034 
L 295.353191 105.04034 
z
" style="fill:#808080;stroke:#808080;stroke-linejoin:miter;stroke-width:0.5;"/>
   </g>
   <g id="patch_5">
    <path clip-path="url(#p1cbe2f3b37)" d="M 295.353191 244.01566 
L 331.38383 244.01566 
L 331.38383 207.985021 
L 295.353191 207.985021 
z
" style="fill:#808080;stroke:#808080;stroke-linejoin:miter;stroke-width:0.5;"/>
   </g>
   <g id="patch_6">
    <path clip-path="url(#p1cbe2f3b37)" d="M 295.353191 295.488 
L 331.38383 295.488 
L 331.38383 259.457362 
L 295.353191 259.457362 
z
" style="fill:#808080;stroke:#808080;stroke-linejoin:miter;stroke-width:0.5;"/>
   </g>
   <g id="patch_7">
    <path clip-path="url(#p1cbe2f3b37)" d="M 192.408511 192.543319 
L 228.439149 192.543319 
L 228.439149 156.512681 
L 192.408511 156.512681 
z
" style="fill:#808080;stroke:#808080;stroke-linejoin:miter;stroke-width:0.5;"/>
   </g>
   <g id="patch_8">
    <path clip-path="url(#p1cbe2f3b37)" d="M 140.93617 192.543319 
L 176.966809 192.543319 
L 176.966809 156.512681 
L 140.93617 156.512681 
z
" style="fill:#808080;stroke:#808080;stroke-linejoin:miter;stroke-width:0.5;"/>
   </g>
   <g id="patch_9">
    <path clip-path="url(#p1cbe2f3b37)" d="M 192.408511 141.070979 
L 228.439149 141.070979 
L 228.439149 105.04034 
L 192.408511 105.04034 
z
" style="fill:#808080;stroke:#808080;stroke-linejoin:miter;stroke-width:0.5;"/>
   </g>
   <g id="patch_10">
    <path clip-path="url(#p1cbe2f3b37)" d="M 140.93617 141.070979 
L 176.966809 141.070979 
L 176.966809 105.04034 
L 140.93617 105.04034 
z
" style="fill:#808080;stroke:#808080;stroke-linejoin:miter;stroke-width:0.5;"/>
   </g>
   <g id="patch_11">
    <path clip-path="url(#p1cbe2f3b37)" d="M 140.93617 89.598638 
L 176.966809 89.598638 
L 176.966809 53.568 
L 140.93617 53.568 
z
" style="fill:#808080;stroke:#808080;stroke-linejoin:miter;stroke-width:0.5;"/>
   </g>
   <g id="patch_12">
    <path clip-path="url(#p1cbe2f3b37)" d="M 295.353191 192.543319 
L 331.38383 192.543319 
L 331.38383 156.512681 
L 295.353191 156.512681 
z
" style="fill:#008000;stroke:#008000;stroke-linejoin:miter;stroke-width:0.5;"/>
   </g>
  </g>
 </g>
 <defs>
  <clipPath id="p1cbe2f3b37">
   <rect height="266.112" width="209.492426" x="131.413787" y="41.472"/>
  </clipPath>
 </defs>
</svg>
