<?xml version="1.0" encoding="utf-8" standalone="no"?>
<!DOCTYPE svg PUBLIC "-//W3C//DTD SVG 1.1//EN"
  "http://www.w3.org/Graphics/SVG/1.1/DTD/svg11.dtd">
<!-- Created with matplotlib (https://matplotlib.org/) -->
<svg height="345.6pt" version="1.1" viewBox="0 0 460.8 345.6" width="460.8pt" xmlns="http://www.w3.org/2000/svg" xmlns:xlink="http://www.w3.org/1999/xlink">
 <defs>
  <style type="text/css">
*{stroke-linecap:butt;stroke-linejoin:round;}
  </style>
 </defs>
 <g id="figure_1">
  <g id="patch_1">
   <path d="M 0 345.6 
L 460.8 345.6 
L 460.8 0 
L 0 0 
z
" style="fill:#ffffff;"/>
  </g>
  <g id="axes_1">
   <g id="patch_2">
    <path clip-path="url(#p980b903b5a)" d="M 230.766879 187.62558 
L 241.553121 187.62558 
L 241.553121 176.839338 
L 230.766879 176.839338 
z
" style="fill:#808080;stroke:#808080;stroke-linejoin:miter;stroke-width:0.5;"/>
   </g>
   <g id="patch_3">
    <path clip-path="url(#p980b903b5a)" d="M 246.175796 187.62558 
L 256.962038 187.62558 
L 256.962038 176.839338 
L 246.175796 176.839338 
z
" style="fill:#808080;stroke:#808080;stroke-linejoin:miter;stroke-width:0.5;"/>
   </g>
   <g id="patch_4">
    <path clip-path="url(#p980b903b5a)" d="M 215.357962 187.62558 
L 226.144204 187.62558 
L 226.144204 176.839338 
L 215.357962 176.839338 
z
" style="fill:#808080;stroke:#808080;stroke-linejoin:miter;stroke-width:0.5;"/>
   </g>
   <g id="patch_5">
    <path clip-path="url(#p980b903b5a)" d="M 230.766879 172.216662 
L 241.553121 172.216662 
L 241.553121 161.43042 
L 230.766879 161.43042 
z
" style="fill:#808080;stroke:#808080;stroke-linejoin:miter;stroke-width:0.5;"/>
   </g>
   <g id="patch_6">
    <path clip-path="url(#p980b903b5a)" d="M 230.766879 203.034497 
L 241.553121 203.034497 
L 241.553121 192.248255 
L 230.766879 192.248255 
z
" style="fill:#808080;stroke:#808080;stroke-linejoin:miter;stroke-width:0.5;"/>
   </g>
   <g id="patch_7">
    <path clip-path="url(#p980b903b5a)" d="M 246.175796 203.034497 
L 256.962038 203.034497 
L 256.962038 192.248255 
L 246.175796 192.248255 
z
" style="fill:#808080;stroke:#808080;stroke-linejoin:miter;stroke-width:0.5;"/>
   </g>
   <g id="patch_8">
    <path clip-path="url(#p980b903b5a)" d="M 215.357962 203.034497 
L 226.144204 203.034497 
L 226.144204 192.248255 
L 215.357962 192.248255 
z
" style="fill:#808080;stroke:#808080;stroke-linejoin:miter;stroke-width:0.5;"/>
   </g>
   <g id="patch_9">
    <path clip-path="url(#p980b903b5a)" d="M 230.766879 218.443414 
L 241.553121 218.443414 
L 241.553121 207.657172 
L 230.766879 207.657172 
z
" style="fill:#808080;stroke:#808080;stroke-linejoin:miter;stroke-width:0.5;"/>
   </g>
   <g id="patch_10">
    <path clip-path="url(#p980b903b5a)" d="M 199.949045 187.62558 
L 210.735287 187.62558 
L 210.735287 176.839338 
L 199.949045 176.839338 
z
" style="fill:#808080;stroke:#808080;stroke-linejoin:miter;stroke-width:0.5;"/>
   </g>
   <g id="patch_11">
    <path clip-path="url(#p980b903b5a)" d="M 215.357962 172.216662 
L 226.144204 172.216662 
L 226.144204 161.43042 
L 215.357962 161.43042 
z
" style="fill:#808080;stroke:#808080;stroke-linejoin:miter;stroke-width:0.5;"/>
   </g>
   <g id="patch_12">
    <path clip-path="url(#p980b903b5a)" d="M 246.175796 172.216662 
L 256.962038 172.216662 
L 256.962038 161.43042 
L 246.175796 161.43042 
z
" style="fill:#808080;stroke:#808080;stroke-linejoin:miter;stroke-width:0.5;"/>
   </g>
   <g id="patch_13">
    <path clip-path="url(#p980b903b5a)" d="M 230.766879 156.807745 
L 241.553121 156.807745 
L 241.553121 146.021503 
L 230.766879 146.021503 
z
" style="fill:#808080;stroke:#808080;stroke-linejoin:miter;stroke-width:0.5;"/>
   </g>
   <g id="patch_14">
    <path clip-path="url(#p980b903b5a)" d="M 184.540127 187.62558 
L 195.326369 187.62558 
L 195.326369 176.839338 
L 184.540127 176.839338 
z
" style="fill:#808080;stroke:#808080;stroke-linejoin:miter;stroke-width:0.5;"/>
   </g>
   <g id="patch_15">
    <path clip-path="url(#p980b903b5a)" d="M 199.949045 172.216662 
L 210.735287 172.216662 
L 210.735287 161.43042 
L 199.949045 161.43042 
z
" style="fill:#808080;stroke:#808080;stroke-linejoin:miter;stroke-width:0.5;"/>
   </g>
   <g id="patch_16">
    <path clip-path="url(#p980b903b5a)" d="M 199.949045 203.034497 
L 210.735287 203.034497 
L 210.735287 192.248255 
L 199.949045 192.248255 
z
" style="fill:#808080;stroke:#808080;stroke-linejoin:miter;stroke-width:0.5;"/>
   </g>
   <g id="patch_17">
    <path clip-path="url(#p980b903b5a)" d="M 169.13121 187.62558 
L 179.917452 187.62558 
L 179.917452 176.839338 
L 169.13121 176.839338 
z
" style="fill:#808080;stroke:#808080;stroke-linejoin:miter;stroke-width:0.5;"/>
   </g>
   <g id="patch_18">
    <path clip-path="url(#p980b903b5a)" d="M 184.540127 172.216662 
L 195.326369 172.216662 
L 195.326369 161.43042 
L 184.540127 161.43042 
z
" style="fill:#808080;stroke:#808080;stroke-linejoin:miter;stroke-width:0.5;"/>
   </g>
   <g id="patch_19">
    <path clip-path="url(#p980b903b5a)" d="M 184.540127 203.034497 
L 195.326369 203.034497 
L 195.326369 192.248255 
L 184.540127 192.248255 
z
" style="fill:#808080;stroke:#808080;stroke-linejoin:miter;stroke-width:0.5;"/>
   </g>
   <g id="patch_20">
    <path clip-path="url(#p980b903b5a)" d="M 261.584713 172.216662 
L 272.370955 172.216662 
L 272.370955 161.43042 
L 261.584713 161.43042 
z
" style="fill:#808080;stroke:#808080;stroke-linejoin:miter;stroke-width:0.5;"/>
   </g>
   <g id="patch_21">
    <path clip-path="url(#p980b903b5a)" d="M 246.175796 156.807745 
L 256.962038 156.807745 
L 256.962038 146.021503 
L 246.175796 146.021503 
z
" style="fill:#808080;stroke:#808080;stroke-linejoin:miter;stroke-width:0.5;"/>
   </g>
   <g id="patch_22">
    <path clip-path="url(#p980b903b5a)" d="M 230.766879 141.398828 
L 241.553121 141.398828 
L 241.553121 130.612586 
L 230.766879 130.612586 
z
" style="fill:#808080;stroke:#808080;stroke-linejoin:miter;stroke-width:0.5;"/>
   </g>
   <g id="patch_23">
    <path clip-path="url(#p980b903b5a)" d="M 246.175796 218.443414 
L 256.962038 218.443414 
L 256.962038 207.657172 
L 246.175796 207.657172 
z
" style="fill:#808080;stroke:#808080;stroke-linejoin:miter;stroke-width:0.5;"/>
   </g>
   <g id="patch_24">
    <path clip-path="url(#p980b903b5a)" d="M 215.357962 218.443414 
L 226.144204 218.443414 
L 226.144204 207.657172 
L 215.357962 207.657172 
z
" style="fill:#808080;stroke:#808080;stroke-linejoin:miter;stroke-width:0.5;"/>
   </g>
   <g id="patch_25">
    <path clip-path="url(#p980b903b5a)" d="M 230.766879 233.852331 
L 241.553121 233.852331 
L 241.553121 223.066089 
L 230.766879 223.066089 
z
" style="fill:#808080;stroke:#808080;stroke-linejoin:miter;stroke-width:0.5;"/>
   </g>
   <g id="patch_26">
    <path clip-path="url(#p980b903b5a)" d="M 261.584713 187.62558 
L 272.370955 187.62558 
L 272.370955 176.839338 
L 261.584713 176.839338 
z
" style="fill:#808080;stroke:#808080;stroke-linejoin:miter;stroke-width:0.5;"/>
   </g>
   <g id="patch_27">
    <path clip-path="url(#p980b903b5a)" d="M 276.993631 172.216662 
L 287.779873 172.216662 
L 287.779873 161.43042 
L 276.993631 161.43042 
z
" style="fill:#808080;stroke:#808080;stroke-linejoin:miter;stroke-width:0.5;"/>
   </g>
   <g id="patch_28">
    <path clip-path="url(#p980b903b5a)" d="M 261.584713 156.807745 
L 272.370955 156.807745 
L 272.370955 146.021503 
L 261.584713 146.021503 
z
" style="fill:#808080;stroke:#808080;stroke-linejoin:miter;stroke-width:0.5;"/>
   </g>
   <g id="patch_29">
    <path clip-path="url(#p980b903b5a)" d="M 261.584713 203.034497 
L 272.370955 203.034497 
L 272.370955 192.248255 
L 261.584713 192.248255 
z
" style="fill:#808080;stroke:#808080;stroke-linejoin:miter;stroke-width:0.5;"/>
   </g>
   <g id="patch_30">
    <path clip-path="url(#p980b903b5a)" d="M 199.949045 156.807745 
L 210.735287 156.807745 
L 210.735287 146.021503 
L 199.949045 146.021503 
z
" style="fill:#808080;stroke:#808080;stroke-linejoin:miter;stroke-width:0.5;"/>
   </g>
   <g id="patch_31">
    <path clip-path="url(#p980b903b5a)" d="M 169.13121 172.216662 
L 179.917452 172.216662 
L 179.917452 161.43042 
L 169.13121 161.43042 
z
" style="fill:#808080;stroke:#808080;stroke-linejoin:miter;stroke-width:0.5;"/>
   </g>
   <g id="patch_32">
    <path clip-path="url(#p980b903b5a)" d="M 246.175796 141.398828 
L 256.962038 141.398828 
L 256.962038 130.612586 
L 246.175796 130.612586 
z
" style="fill:#808080;stroke:#808080;stroke-linejoin:miter;stroke-width:0.5;"/>
   </g>
   <g id="patch_33">
    <path clip-path="url(#p980b903b5a)" d="M 215.357962 141.398828 
L 226.144204 141.398828 
L 226.144204 130.612586 
L 215.357962 130.612586 
z
" style="fill:#808080;stroke:#808080;stroke-linejoin:miter;stroke-width:0.5;"/>
   </g>
   <g id="patch_34">
    <path clip-path="url(#p980b903b5a)" d="M 230.766879 125.989911 
L 241.553121 125.989911 
L 241.553121 115.203669 
L 230.766879 115.203669 
z
" style="fill:#808080;stroke:#808080;stroke-linejoin:miter;stroke-width:0.5;"/>
   </g>
   <g id="patch_35">
    <path clip-path="url(#p980b903b5a)" d="M 246.175796 125.989911 
L 256.962038 125.989911 
L 256.962038 115.203669 
L 246.175796 115.203669 
z
" style="fill:#808080;stroke:#808080;stroke-linejoin:miter;stroke-width:0.5;"/>
   </g>
   <g id="patch_36">
    <path clip-path="url(#p980b903b5a)" d="M 215.357962 125.989911 
L 226.144204 125.989911 
L 226.144204 115.203669 
L 215.357962 115.203669 
z
" style="fill:#808080;stroke:#808080;stroke-linejoin:miter;stroke-width:0.5;"/>
   </g>
   <g id="patch_37">
    <path clip-path="url(#p980b903b5a)" d="M 230.766879 110.580994 
L 241.553121 110.580994 
L 241.553121 99.794752 
L 230.766879 99.794752 
z
" style="fill:#808080;stroke:#808080;stroke-linejoin:miter;stroke-width:0.5;"/>
   </g>
   <g id="patch_38">
    <path clip-path="url(#p980b903b5a)" d="M 199.949045 141.398828 
L 210.735287 141.398828 
L 210.735287 130.612586 
L 199.949045 130.612586 
z
" style="fill:#808080;stroke:#808080;stroke-linejoin:miter;stroke-width:0.5;"/>
   </g>
   <g id="patch_39">
    <path clip-path="url(#p980b903b5a)" d="M 276.993631 187.62558 
L 287.779873 187.62558 
L 287.779873 176.839338 
L 276.993631 176.839338 
z
" style="fill:#808080;stroke:#808080;stroke-linejoin:miter;stroke-width:0.5;"/>
   </g>
   <g id="patch_40">
    <path clip-path="url(#p980b903b5a)" d="M 246.175796 233.852331 
L 256.962038 233.852331 
L 256.962038 223.066089 
L 246.175796 223.066089 
z
" style="fill:#808080;stroke:#808080;stroke-linejoin:miter;stroke-width:0.5;"/>
   </g>
   <g id="patch_41">
    <path clip-path="url(#p980b903b5a)" d="M 215.357962 233.852331 
L 226.144204 233.852331 
L 226.144204 223.066089 
L 215.357962 223.066089 
z
" style="fill:#808080;stroke:#808080;stroke-linejoin:miter;stroke-width:0.5;"/>
   </g>
   <g id="patch_42">
    <path clip-path="url(#p980b903b5a)" d="M 230.766879 249.261248 
L 241.553121 249.261248 
L 241.553121 238.475006 
L 230.766879 238.475006 
z
" style="fill:#808080;stroke:#808080;stroke-linejoin:miter;stroke-width:0.5;"/>
   </g>
   <g id="patch_43">
    <path clip-path="url(#p980b903b5a)" d="M 261.584713 125.989911 
L 272.370955 125.989911 
L 272.370955 115.203669 
L 261.584713 115.203669 
z
" style="fill:#808080;stroke:#808080;stroke-linejoin:miter;stroke-width:0.5;"/>
   </g>
   <g id="patch_44">
    <path clip-path="url(#p980b903b5a)" d="M 246.175796 110.580994 
L 256.962038 110.580994 
L 256.962038 99.794752 
L 246.175796 99.794752 
z
" style="fill:#808080;stroke:#808080;stroke-linejoin:miter;stroke-width:0.5;"/>
   </g>
   <g id="patch_45">
    <path clip-path="url(#p980b903b5a)" d="M 276.993631 125.989911 
L 287.779873 125.989911 
L 287.779873 115.203669 
L 276.993631 115.203669 
z
" style="fill:#808080;stroke:#808080;stroke-linejoin:miter;stroke-width:0.5;"/>
   </g>
   <g id="patch_46">
    <path clip-path="url(#p980b903b5a)" d="M 261.584713 110.580994 
L 272.370955 110.580994 
L 272.370955 99.794752 
L 261.584713 99.794752 
z
" style="fill:#808080;stroke:#808080;stroke-linejoin:miter;stroke-width:0.5;"/>
   </g>
   <g id="patch_47">
    <path clip-path="url(#p980b903b5a)" d="M 261.584713 141.398828 
L 272.370955 141.398828 
L 272.370955 130.612586 
L 261.584713 130.612586 
z
" style="fill:#808080;stroke:#808080;stroke-linejoin:miter;stroke-width:0.5;"/>
   </g>
   <g id="patch_48">
    <path clip-path="url(#p980b903b5a)" d="M 153.722293 187.62558 
L 164.508535 187.62558 
L 164.508535 176.839338 
L 153.722293 176.839338 
z
" style="fill:#808080;stroke:#808080;stroke-linejoin:miter;stroke-width:0.5;"/>
   </g>
   <g id="patch_49">
    <path clip-path="url(#p980b903b5a)" d="M 276.993631 110.580994 
L 287.779873 110.580994 
L 287.779873 99.794752 
L 276.993631 99.794752 
z
" style="fill:#808080;stroke:#808080;stroke-linejoin:miter;stroke-width:0.5;"/>
   </g>
   <g id="patch_50">
    <path clip-path="url(#p980b903b5a)" d="M 261.584713 95.172076 
L 272.370955 95.172076 
L 272.370955 84.385834 
L 261.584713 84.385834 
z
" style="fill:#808080;stroke:#808080;stroke-linejoin:miter;stroke-width:0.5;"/>
   </g>
   <g id="patch_51">
    <path clip-path="url(#p980b903b5a)" d="M 276.993631 203.034497 
L 287.779873 203.034497 
L 287.779873 192.248255 
L 276.993631 192.248255 
z
" style="fill:#808080;stroke:#808080;stroke-linejoin:miter;stroke-width:0.5;"/>
   </g>
   <g id="patch_52">
    <path clip-path="url(#p980b903b5a)" d="M 261.584713 218.443414 
L 272.370955 218.443414 
L 272.370955 207.657172 
L 261.584713 207.657172 
z
" style="fill:#808080;stroke:#808080;stroke-linejoin:miter;stroke-width:0.5;"/>
   </g>
   <g id="patch_53">
    <path clip-path="url(#p980b903b5a)" d="M 276.993631 141.398828 
L 287.779873 141.398828 
L 287.779873 130.612586 
L 276.993631 130.612586 
z
" style="fill:#808080;stroke:#808080;stroke-linejoin:miter;stroke-width:0.5;"/>
   </g>
   <g id="patch_54">
    <path clip-path="url(#p980b903b5a)" d="M 276.993631 156.807745 
L 287.779873 156.807745 
L 287.779873 146.021503 
L 276.993631 146.021503 
z
" style="fill:#808080;stroke:#808080;stroke-linejoin:miter;stroke-width:0.5;"/>
   </g>
   <g id="patch_55">
    <path clip-path="url(#p980b903b5a)" d="M 230.766879 95.172076 
L 241.553121 95.172076 
L 241.553121 84.385834 
L 230.766879 84.385834 
z
" style="fill:#808080;stroke:#808080;stroke-linejoin:miter;stroke-width:0.5;"/>
   </g>
   <g id="patch_56">
    <path clip-path="url(#p980b903b5a)" d="M 292.402548 141.398828 
L 303.18879 141.398828 
L 303.18879 130.612586 
L 292.402548 130.612586 
z
" style="fill:#808080;stroke:#808080;stroke-linejoin:miter;stroke-width:0.5;"/>
   </g>
   <g id="patch_57">
    <path clip-path="url(#p980b903b5a)" d="M 246.175796 95.172076 
L 256.962038 95.172076 
L 256.962038 84.385834 
L 246.175796 84.385834 
z
" style="fill:#808080;stroke:#808080;stroke-linejoin:miter;stroke-width:0.5;"/>
   </g>
   <g id="patch_58">
    <path clip-path="url(#p980b903b5a)" d="M 169.13121 156.807745 
L 179.917452 156.807745 
L 179.917452 146.021503 
L 169.13121 146.021503 
z
" style="fill:#808080;stroke:#808080;stroke-linejoin:miter;stroke-width:0.5;"/>
   </g>
   <g id="patch_59">
    <path clip-path="url(#p980b903b5a)" d="M 138.313376 187.62558 
L 149.099618 187.62558 
L 149.099618 176.839338 
L 138.313376 176.839338 
z
" style="fill:#808080;stroke:#808080;stroke-linejoin:miter;stroke-width:0.5;"/>
   </g>
   <g id="patch_60">
    <path clip-path="url(#p980b903b5a)" d="M 153.722293 203.034497 
L 164.508535 203.034497 
L 164.508535 192.248255 
L 153.722293 192.248255 
z
" style="fill:#808080;stroke:#808080;stroke-linejoin:miter;stroke-width:0.5;"/>
   </g>
   <g id="patch_61">
    <path clip-path="url(#p980b903b5a)" d="M 292.402548 110.580994 
L 303.18879 110.580994 
L 303.18879 99.794752 
L 292.402548 99.794752 
z
" style="fill:#808080;stroke:#808080;stroke-linejoin:miter;stroke-width:0.5;"/>
   </g>
   <g id="patch_62">
    <path clip-path="url(#p980b903b5a)" d="M 276.993631 95.172076 
L 287.779873 95.172076 
L 287.779873 84.385834 
L 276.993631 84.385834 
z
" style="fill:#808080;stroke:#808080;stroke-linejoin:miter;stroke-width:0.5;"/>
   </g>
   <g id="patch_63">
    <path clip-path="url(#p980b903b5a)" d="M 184.540127 141.398828 
L 195.326369 141.398828 
L 195.326369 130.612586 
L 184.540127 130.612586 
z
" style="fill:#808080;stroke:#808080;stroke-linejoin:miter;stroke-width:0.5;"/>
   </g>
   <g id="patch_64">
    <path clip-path="url(#p980b903b5a)" d="M 199.949045 125.989911 
L 210.735287 125.989911 
L 210.735287 115.203669 
L 199.949045 115.203669 
z
" style="fill:#808080;stroke:#808080;stroke-linejoin:miter;stroke-width:0.5;"/>
   </g>
   <g id="patch_65">
    <path clip-path="url(#p980b903b5a)" d="M 199.949045 233.852331 
L 210.735287 233.852331 
L 210.735287 223.066089 
L 199.949045 223.066089 
z
" style="fill:#808080;stroke:#808080;stroke-linejoin:miter;stroke-width:0.5;"/>
   </g>
   <g id="patch_66">
    <path clip-path="url(#p980b903b5a)" d="M 215.357962 249.261248 
L 226.144204 249.261248 
L 226.144204 238.475006 
L 215.357962 238.475006 
z
" style="fill:#808080;stroke:#808080;stroke-linejoin:miter;stroke-width:0.5;"/>
   </g>
   <g id="patch_67">
    <path clip-path="url(#p980b903b5a)" d="M 138.313376 203.034497 
L 149.099618 203.034497 
L 149.099618 192.248255 
L 138.313376 192.248255 
z
" style="fill:#808080;stroke:#808080;stroke-linejoin:miter;stroke-width:0.5;"/>
   </g>
   <g id="patch_68">
    <path clip-path="url(#p980b903b5a)" d="M 246.175796 79.763159 
L 256.962038 79.763159 
L 256.962038 68.976917 
L 246.175796 68.976917 
z
" style="fill:#808080;stroke:#808080;stroke-linejoin:miter;stroke-width:0.5;"/>
   </g>
   <g id="patch_69">
    <path clip-path="url(#p980b903b5a)" d="M 122.904459 187.62558 
L 133.690701 187.62558 
L 133.690701 176.839338 
L 122.904459 176.839338 
z
" style="fill:#808080;stroke:#808080;stroke-linejoin:miter;stroke-width:0.5;"/>
   </g>
   <g id="patch_70">
    <path clip-path="url(#p980b903b5a)" d="M 138.313376 172.216662 
L 149.099618 172.216662 
L 149.099618 161.43042 
L 138.313376 161.43042 
z
" style="fill:#808080;stroke:#808080;stroke-linejoin:miter;stroke-width:0.5;"/>
   </g>
   <g id="patch_71">
    <path clip-path="url(#p980b903b5a)" d="M 292.402548 203.034497 
L 303.18879 203.034497 
L 303.18879 192.248255 
L 292.402548 192.248255 
z
" style="fill:#808080;stroke:#808080;stroke-linejoin:miter;stroke-width:0.5;"/>
   </g>
   <g id="patch_72">
    <path clip-path="url(#p980b903b5a)" d="M 276.993631 218.443414 
L 287.779873 218.443414 
L 287.779873 207.657172 
L 276.993631 207.657172 
z
" style="fill:#808080;stroke:#808080;stroke-linejoin:miter;stroke-width:0.5;"/>
   </g>
   <g id="patch_73">
    <path clip-path="url(#p980b903b5a)" d="M 292.402548 172.216662 
L 303.18879 172.216662 
L 303.18879 161.43042 
L 292.402548 161.43042 
z
" style="fill:#808080;stroke:#808080;stroke-linejoin:miter;stroke-width:0.5;"/>
   </g>
   <g id="patch_74">
    <path clip-path="url(#p980b903b5a)" d="M 307.811465 172.216662 
L 318.597707 172.216662 
L 318.597707 161.43042 
L 307.811465 161.43042 
z
" style="fill:#808080;stroke:#808080;stroke-linejoin:miter;stroke-width:0.5;"/>
   </g>
   <g id="patch_75">
    <path clip-path="url(#p980b903b5a)" d="M 184.540127 233.852331 
L 195.326369 233.852331 
L 195.326369 223.066089 
L 184.540127 223.066089 
z
" style="fill:#808080;stroke:#808080;stroke-linejoin:miter;stroke-width:0.5;"/>
   </g>
   <g id="patch_76">
    <path clip-path="url(#p980b903b5a)" d="M 307.811465 141.398828 
L 318.597707 141.398828 
L 318.597707 130.612586 
L 307.811465 130.612586 
z
" style="fill:#808080;stroke:#808080;stroke-linejoin:miter;stroke-width:0.5;"/>
   </g>
   <g id="patch_77">
    <path clip-path="url(#p980b903b5a)" d="M 292.402548 125.989911 
L 303.18879 125.989911 
L 303.18879 115.203669 
L 292.402548 115.203669 
z
" style="fill:#808080;stroke:#808080;stroke-linejoin:miter;stroke-width:0.5;"/>
   </g>
   <g id="patch_78">
    <path clip-path="url(#p980b903b5a)" d="M 169.13121 233.852331 
L 179.917452 233.852331 
L 179.917452 223.066089 
L 169.13121 223.066089 
z
" style="fill:#808080;stroke:#808080;stroke-linejoin:miter;stroke-width:0.5;"/>
   </g>
   <g id="patch_79">
    <path clip-path="url(#p980b903b5a)" d="M 184.540127 218.443414 
L 195.326369 218.443414 
L 195.326369 207.657172 
L 184.540127 207.657172 
z
" style="fill:#808080;stroke:#808080;stroke-linejoin:miter;stroke-width:0.5;"/>
   </g>
   <g id="patch_80">
    <path clip-path="url(#p980b903b5a)" d="M 184.540127 249.261248 
L 195.326369 249.261248 
L 195.326369 238.475006 
L 184.540127 238.475006 
z
" style="fill:#808080;stroke:#808080;stroke-linejoin:miter;stroke-width:0.5;"/>
   </g>
   <g id="patch_81">
    <path clip-path="url(#p980b903b5a)" d="M 153.722293 156.807745 
L 164.508535 156.807745 
L 164.508535 146.021503 
L 153.722293 146.021503 
z
" style="fill:#808080;stroke:#808080;stroke-linejoin:miter;stroke-width:0.5;"/>
   </g>
   <g id="patch_82">
    <path clip-path="url(#p980b903b5a)" d="M 169.13121 141.398828 
L 179.917452 141.398828 
L 179.917452 130.612586 
L 169.13121 130.612586 
z
" style="fill:#808080;stroke:#808080;stroke-linejoin:miter;stroke-width:0.5;"/>
   </g>
   <g id="patch_83">
    <path clip-path="url(#p980b903b5a)" d="M 261.584713 79.763159 
L 272.370955 79.763159 
L 272.370955 68.976917 
L 261.584713 68.976917 
z
" style="fill:#808080;stroke:#808080;stroke-linejoin:miter;stroke-width:0.5;"/>
   </g>
   <g id="patch_84">
    <path clip-path="url(#p980b903b5a)" d="M 246.175796 64.354242 
L 256.962038 64.354242 
L 256.962038 53.568 
L 246.175796 53.568 
z
" style="fill:#808080;stroke:#808080;stroke-linejoin:miter;stroke-width:0.5;"/>
   </g>
   <g id="patch_85">
    <path clip-path="url(#p980b903b5a)" d="M 276.993631 233.852331 
L 287.779873 233.852331 
L 287.779873 223.066089 
L 276.993631 223.066089 
z
" style="fill:#808080;stroke:#808080;stroke-linejoin:miter;stroke-width:0.5;"/>
   </g>
   <g id="patch_86">
    <path clip-path="url(#p980b903b5a)" d="M 138.313376 156.807745 
L 149.099618 156.807745 
L 149.099618 146.021503 
L 138.313376 146.021503 
z
" style="fill:#808080;stroke:#808080;stroke-linejoin:miter;stroke-width:0.5;"/>
   </g>
   <g id="patch_87">
    <path clip-path="url(#p980b903b5a)" d="M 153.722293 141.398828 
L 164.508535 141.398828 
L 164.508535 130.612586 
L 153.722293 130.612586 
z
" style="fill:#808080;stroke:#808080;stroke-linejoin:miter;stroke-width:0.5;"/>
   </g>
   <g id="patch_88">
    <path clip-path="url(#p980b903b5a)" d="M 323.220382 172.216662 
L 334.006624 172.216662 
L 334.006624 161.43042 
L 323.220382 161.43042 
z
" style="fill:#808080;stroke:#808080;stroke-linejoin:miter;stroke-width:0.5;"/>
   </g>
   <g id="patch_89">
    <path clip-path="url(#p980b903b5a)" d="M 184.540127 125.989911 
L 195.326369 125.989911 
L 195.326369 115.203669 
L 184.540127 115.203669 
z
" style="fill:#808080;stroke:#808080;stroke-linejoin:miter;stroke-width:0.5;"/>
   </g>
   <g id="patch_90">
    <path clip-path="url(#p980b903b5a)" d="M 323.220382 141.398828 
L 334.006624 141.398828 
L 334.006624 130.612586 
L 323.220382 130.612586 
z
" style="fill:#808080;stroke:#808080;stroke-linejoin:miter;stroke-width:0.5;"/>
   </g>
   <g id="patch_91">
    <path clip-path="url(#p980b903b5a)" d="M 230.766879 264.670166 
L 241.553121 264.670166 
L 241.553121 253.883924 
L 230.766879 253.883924 
z
" style="fill:#808080;stroke:#808080;stroke-linejoin:miter;stroke-width:0.5;"/>
   </g>
   <g id="patch_92">
    <path clip-path="url(#p980b903b5a)" d="M 184.540127 264.670166 
L 195.326369 264.670166 
L 195.326369 253.883924 
L 184.540127 253.883924 
z
" style="fill:#808080;stroke:#808080;stroke-linejoin:miter;stroke-width:0.5;"/>
   </g>
   <g id="patch_93">
    <path clip-path="url(#p980b903b5a)" d="M 292.402548 233.852331 
L 303.18879 233.852331 
L 303.18879 223.066089 
L 292.402548 223.066089 
z
" style="fill:#808080;stroke:#808080;stroke-linejoin:miter;stroke-width:0.5;"/>
   </g>
   <g id="patch_94">
    <path clip-path="url(#p980b903b5a)" d="M 323.220382 156.807745 
L 334.006624 156.807745 
L 334.006624 146.021503 
L 323.220382 146.021503 
z
" style="fill:#808080;stroke:#808080;stroke-linejoin:miter;stroke-width:0.5;"/>
   </g>
   <g id="patch_95">
    <path clip-path="url(#p980b903b5a)" d="M 338.629299 156.807745 
L 349.415541 156.807745 
L 349.415541 146.021503 
L 338.629299 146.021503 
z
" style="fill:#808080;stroke:#808080;stroke-linejoin:miter;stroke-width:0.5;"/>
   </g>
   <g id="patch_96">
    <path clip-path="url(#p980b903b5a)" d="M 184.540127 280.079083 
L 195.326369 280.079083 
L 195.326369 269.292841 
L 184.540127 269.292841 
z
" style="fill:#808080;stroke:#808080;stroke-linejoin:miter;stroke-width:0.5;"/>
   </g>
   <g id="patch_97">
    <path clip-path="url(#p980b903b5a)" d="M 215.357962 264.670166 
L 226.144204 264.670166 
L 226.144204 253.883924 
L 215.357962 253.883924 
z
" style="fill:#808080;stroke:#808080;stroke-linejoin:miter;stroke-width:0.5;"/>
   </g>
   <g id="patch_98">
    <path clip-path="url(#p980b903b5a)" d="M 338.629299 141.398828 
L 349.415541 141.398828 
L 349.415541 130.612586 
L 338.629299 130.612586 
z
" style="fill:#808080;stroke:#808080;stroke-linejoin:miter;stroke-width:0.5;"/>
   </g>
   <g id="patch_99">
    <path clip-path="url(#p980b903b5a)" d="M 323.220382 125.989911 
L 334.006624 125.989911 
L 334.006624 115.203669 
L 323.220382 115.203669 
z
" style="fill:#808080;stroke:#808080;stroke-linejoin:miter;stroke-width:0.5;"/>
   </g>
   <g id="patch_100">
    <path clip-path="url(#p980b903b5a)" d="M 169.13121 280.079083 
L 179.917452 280.079083 
L 179.917452 269.292841 
L 169.13121 269.292841 
z
" style="fill:#808080;stroke:#808080;stroke-linejoin:miter;stroke-width:0.5;"/>
   </g>
   <g id="patch_101">
    <path clip-path="url(#p980b903b5a)" d="M 169.13121 295.488 
L 179.917452 295.488 
L 179.917452 284.701758 
L 169.13121 284.701758 
z
" style="fill:#808080;stroke:#808080;stroke-linejoin:miter;stroke-width:0.5;"/>
   </g>
   <g id="patch_102">
    <path clip-path="url(#p980b903b5a)" d="M 215.357962 156.807745 
L 226.144204 156.807745 
L 226.144204 146.021503 
L 215.357962 146.021503 
z
" style="fill:#ff0000;stroke:#ff0000;stroke-linejoin:miter;stroke-width:0.5;"/>
   </g>
   <g id="patch_103">
    <path clip-path="url(#p980b903b5a)" d="M 199.949045 218.443414 
L 210.735287 218.443414 
L 210.735287 207.657172 
L 199.949045 207.657172 
z
" style="fill:#ff0000;stroke:#ff0000;stroke-linejoin:miter;stroke-width:0.5;"/>
   </g>
   <g id="patch_104">
    <path clip-path="url(#p980b903b5a)" d="M 153.722293 172.216662 
L 164.508535 172.216662 
L 164.508535 161.43042 
L 153.722293 161.43042 
z
" style="fill:#ff0000;stroke:#ff0000;stroke-linejoin:miter;stroke-width:0.5;"/>
   </g>
   <g id="patch_105">
    <path clip-path="url(#p980b903b5a)" d="M 184.540127 156.807745 
L 195.326369 156.807745 
L 195.326369 146.021503 
L 184.540127 146.021503 
z
" style="fill:#ff0000;stroke:#ff0000;stroke-linejoin:miter;stroke-width:0.5;"/>
   </g>
   <g id="patch_106">
    <path clip-path="url(#p980b903b5a)" d="M 307.811465 156.807745 
L 318.597707 156.807745 
L 318.597707 146.021503 
L 307.811465 146.021503 
z
" style="fill:#ff0000;stroke:#ff0000;stroke-linejoin:miter;stroke-width:0.5;"/>
   </g>
   <g id="patch_107">
    <path clip-path="url(#p980b903b5a)" d="M 292.402548 156.807745 
L 303.18879 156.807745 
L 303.18879 146.021503 
L 292.402548 146.021503 
z
" style="fill:#ff0000;stroke:#ff0000;stroke-linejoin:miter;stroke-width:0.5;"/>
   </g>
   <g id="patch_108">
    <path clip-path="url(#p980b903b5a)" d="M 230.766879 187.62558 
L 241.553121 187.62558 
L 241.553121 176.839338 
L 230.766879 176.839338 
z
" style="fill:#008000;stroke:#008000;stroke-linejoin:miter;stroke-width:0.5;"/>
   </g>
  </g>
 </g>
 <defs>
  <clipPath id="p980b903b5a">
   <rect height="266.112" width="249.162191" x="111.578904" y="41.472"/>
  </clipPath>
 </defs>
</svg>
